<svg id="Layer_1" data-name="Layer 1" xmlns="http://www.w3.org/2000/svg" viewBox="0 0 515 100"><defs><style>.cls-1{fill:none;stroke:#000;stroke-miterlimit:10;stroke-width:4px;}.cls-2{fill:#c03c2d;}</style></defs><title>Artboard 1</title><g id="_Group_" data-name="&lt;Group&gt;"><path id="_Compound_Path_" data-name="&lt;Compound Path&gt;" d="M460.61,0,406.21,41.29l7.63,10.12,46.77-35.65,46.76,35.65L515,41.29Zm0,22.39-43,32.67V99.5h32.84V64.68h19.9V99.5h33.33V55.22Z"/></g><rect class="cls-1" x="2" y="2.32" width="145" height="95.68"/><line class="cls-1" x1="76.92" y1="28.72" x2="136.53" y2="28.72"/><line class="cls-1" x1="76.92" y1="51.28" x2="136.53" y2="51.28"/><line class="cls-1" x1="76.92" y1="73.83" x2="136.53" y2="73.83"/><path d="M60.2,66.46c-3.38-1.12-11.28-4.2-11.28-4.2-2.54-.84-2.54-3.08-2.82-5.6v-.28a20.33,20.33,0,0,0,7-15.11c0-13.15-5.64-18.19-14.1-18.19-5.92,0-14.1,3.36-14.1,18.19,0,5.88,3.1,11.47,7,15.11v.28c0,2.52-.28,4.76-2.82,5.6,0,0-8.18,3.08-11.28,4.2-3.67,1.12-7,2.8-7,7v2.8H67.25v-2.8C67.25,70.09,65,67.86,60.2,66.46Z"/><path id="Pil" d="M202.33,57.28v-12H307l-11.34-24,56.69,30-56.69,30,11.34-24Z"/><path class="cls-2" d="M239.71,100l-11.82-8,62.4-92,11.82,8Z"/></svg>
