<svg id="Layer_1" data-name="Layer 1" xmlns="http://www.w3.org/2000/svg" viewBox="0 0 93 84.05"><defs><style>.cls-1{fill:none;stroke:#000;stroke-miterlimit:10;stroke-width:3px;}.cls-2{fill:#c03b2d;}</style></defs><title>Artboard 1</title><rect class="cls-1" x="1.5" y="12.14" width="90" height="60"/><line class="cls-1" x1="48" y1="29.14" x2="85" y2="29.14"/><line class="cls-1" x1="48" y1="43.14" x2="85" y2="43.14"/><line class="cls-1" x1="48" y1="57.14" x2="85" y2="57.14"/><path d="M37.6,52.54c-2.1-.7-7-2.6-7-2.6-1.6-.5-1.6-1.9-1.7-3.5v-.2a12.58,12.58,0,0,0,4.4-9.4c0-8.2-3.5-11.3-8.8-11.3-3.7,0-8.8,2.1-8.8,11.3a13.28,13.28,0,0,0,4.4,9.4v.2c0,1.6-.2,3-1.8,3.5l-7,2.6c-2.3.7-4.4,1.7-4.4,4.3v1.7h35v-1.7C42,54.84,40.6,53.44,37.6,52.54Z"/><path class="cls-2" d="M26.6,84.05l-9.93-6.74L69.12,0l9.93,6.74Z"/></svg>