<svg id="Layer_1" data-name="Layer 1" xmlns="http://www.w3.org/2000/svg" viewBox="0 0 980 676.9"><title>eye-closed</title><path d="M386.9,500c0-30.2,11.2-56.6,33.9-79.2s49.1-33.9,79.2-33.9ZM353,533.9c-3.7-11.2-3.7-22.7-3.7-33.9,0-83,67.8-150.8,150.8-150.8,11.2,0,22.7,0,33.9,3.7L635.7,251.2C594.3,240,549,236,499.9,236,160.8,236.1,10,500,10,500S70.3,605.5,202.2,684.7ZM613.1,500,500,613.1c30.2,0,56.6-11.2,79.2-33.9S613.1,530.2,613.1,500ZM797.8,315.3,647,466.1c3.7,11.2,3.7,22.7,3.7,33.9,0,83-67.8,150.8-150.8,150.8-11.2,0-22.7,0-33.9-3.7L364.4,748.7c41.4,11.2,86.7,15,135.6,15,339.2,0,490-263.9,490-263.9S929.7,394.6,797.8,315.3Zm3.4-153.7L161.6,801.2l37.3,37.3L838.7,198.7Z" transform="translate(-10 -161.6)"/></svg>