<svg id="Layer_2" data-name="Layer 2" xmlns="http://www.w3.org/2000/svg" viewBox="0 0 980 527.7"><title>eye-open</title><path d="M989,499.8s-13.5-23.5-41.7-56.7a604,604,0,0,0-74-73.3c-.1-.1-.3-.2-.4-.4-.9-.7-1.8-1.5-2.6-2.2a609.48,609.48,0,0,0-73.4-51.9l-.3.3A567.59,567.59,0,0,0,630.1,250c-39.8-10.2-83.2-13.9-130.1-14h-1.9c-46.8.1-90.2,3.8-130,14a565.82,565.82,0,0,0-166.4,65.6l-.3-.3A612.73,612.73,0,0,0,128,367.2c-.9.7-1.8,1.5-2.7,2.2-.1.1-.3.2-.4.3a597,597,0,0,0-74,73.3C22.5,476.3,9,499.8,9,499.8l.1.1L9,500S69.3,605.5,201.2,684.7l.5-.5a567.89,567.89,0,0,0,161.7,64.5h0c41.4,11.2,86.7,15,135.6,15s94.2-3.8,135.6-15h0a562.65,562.65,0,0,0,161.7-64.5l.5.5C928.7,605.5,989,500,989,500v-.2Zm-490,151C416,650.7,348.3,583,348.3,500S416,349.3,499,349.2c83,.1,150.7,67.8,150.7,150.8S582,650.7,499,650.8Z" transform="translate(-9 -236)"/><circle cx="490.3" cy="265.1" r="113.8"/></svg>