<svg xmlns="http://www.w3.org/2000/svg" viewBox="0 0 52 52"><title>Asset 1</title><g id="Layer_2" data-name="Layer 2"><g id="Layer_2-2" data-name="Layer 2"><path class="cls-1" d="M26,0A26,26,0,1,0,52,26,26,26,0,0,0,26,0Zm3.59,41H23V34.56h6.59Zm6.78-19.28A8.2,8.2,0,0,1,35.07,24a8.69,8.69,0,0,1-1.72,1.57q-.94.65-1.79,1.3a8.35,8.35,0,0,0-1.49,1.49,4.28,4.28,0,0,0-.82,2.1V32H23.58V30.15a8.59,8.59,0,0,1,.69-3A8.68,8.68,0,0,1,25.6,25a10.58,10.58,0,0,1,1.6-1.49q.84-.63,1.55-1.26a5.63,5.63,0,0,0,1.16-1.39A3.45,3.45,0,0,0,30.3,19a3.84,3.84,0,0,0-.94-2.86,3.6,3.6,0,0,0-2.62-.92,4.06,4.06,0,0,0-2,.44,3.9,3.9,0,0,0-1.34,1.18,5.11,5.11,0,0,0-.78,1.72,8.56,8.56,0,0,0-.25,2.12H16.23A12,12,0,0,1,17,16.54a9.85,9.85,0,0,1,2.06-3.28,9.27,9.27,0,0,1,3.19-2.16,10.79,10.79,0,0,1,4.18-.78,13.16,13.16,0,0,1,5,.82,9.69,9.69,0,0,1,3.21,2,7.38,7.38,0,0,1,1.74,2.63,7.54,7.54,0,0,1,.52,2.63A9,9,0,0,1,36.37,21.75Z"/></g></g></svg>