<svg id="logo" xmlns="http://www.w3.org/2000/svg" viewBox="0 0 136.06 29.81"><title>nem-id</title><path d="M455.05,311.17a1.08,1.08,0,1,0,2.16,0V283.86a1.08,1.08,0,1,0-2.16,0Z" transform="translate(-352.91 -282.73)"/><path d="M474.09,282.94h-6.65c-1.75,0-2.58.91-2.58,2.79v23.53c0,1.87.83,2.79,2.58,2.79h6.28C483.24,312,489,306,489,297.28S483.36,282.94,474.09,282.94ZM474,310h-5.86c-.83,0-1.08-.33-1.08-1.25V286.27c0-.91.25-1.25,1.08-1.25h5.57c8.85,0,13.05,5.2,13.05,12.47C486.73,305,482.08,310,474,310Z" transform="translate(-352.91 -282.73)"/><path d="M355,286.27c0-.75.21-.91.5-.91s.54.46.67.62l16.09,24.4a2.79,2.79,0,0,0,2.45,1.46c1.58,0,2.41-1.12,2.41-2.83V283.9a1,1,0,1,0-2.08,0v24.82c0,.75-.21.91-.5.91s-.54-.46-.67-.62l-16.09-24.4a2.79,2.79,0,0,0-2.45-1.46c-1.58,0-2.41,1.12-2.41,2.83v25.19a1,1,0,1,0,2.08,0Z" transform="translate(-352.91 -282.73)"/><path d="M407.29,311.17a1,1,0,1,0,2.08,0V286.06c0-.75.17-.91.46-.91s.58.46.71.62l9,12.64a1,1,0,0,0,1.83,0l9.06-12.64c.12-.17.42-.62.71-.62s.46.17.46.91v25.11a1,1,0,1,0,2.08,0V285.69c0-1.7-.79-2.74-2.37-2.74a2.82,2.82,0,0,0-2.5,1.46l-8.31,11.85-8.31-11.85a2.77,2.77,0,0,0-2.45-1.46c-1.58,0-2.41,1.12-2.41,2.83Z" transform="translate(-352.91 -282.73)"/><path d="M393.9,296.74a1.08,1.08,0,0,0,1.48,0,1.06,1.06,0,0,0-.11-1.52l-8.19-8.71c-.46-.5-.62-.71-.62-1s.21-.5.67-.5h12.72a1,1,0,0,0,1.12-1,1,1,0,0,0-1.12-1h-13.3c-1.46,0-2.45.75-2.45,2a4.57,4.57,0,0,0,1.62,3Z" transform="translate(-352.91 -282.73)"/><path d="M402.31,308a1.07,1.07,0,0,0-.29-1.53,1,1,0,0,0-1.49.37,8.79,8.79,0,0,1-7.37,3.62c-3.74,0-7.82-2.21-7.82-6.94,0-4.17,4.07-6,4.8-6.33a1,1,0,0,0,.56-1.42,1.05,1.05,0,0,0-1.47-.43c-1.1.37-6.06,2.65-6.06,8.27s4.45,8.94,9.73,8.94C397.75,312.54,401,310.25,402.31,308Z" transform="translate(-352.91 -282.73)"/></svg>