<svg id="Layer_1" data-name="Layer 1" xmlns="http://www.w3.org/2000/svg" viewBox="0 0 331.78 69.05"><title>uni-login</title><path d="M58.42,29.86H68.5v29c0,8.57,2.74,14.18,10.44,14.18s10.44-5.62,10.44-14.18v-29H99.47V62c0,13.46-7.63,19-20.52,19S58.42,75.44,58.42,62Z" transform="translate(-58.42 -27.06)"/><path d="M109.54,29.86h12.38l19.15,37.59h.14V29.86h9.65V80.12H138.56L119.33,42.54h-.14V80.12h-9.65Z" transform="translate(-58.42 -27.06)"/><path d="M160.44,29.86h10.08V80.12H160.44Z" transform="translate(-58.42 -27.06)"/><path d="M192.77,42.46A12.57,12.57,0,1,1,180.24,55,12.6,12.6,0,0,1,192.77,42.46Z" transform="translate(-58.42 -27.06)"/><path d="M215.88,29.86H226V72.2h19.51v7.92h-29.6Z" transform="translate(-58.42 -27.06)"/><path d="M267.29,42.18c11,0,19.44,7.42,19.44,19.66,0,10.66-7.13,19.15-19.44,19.15s-19.37-8.5-19.37-19.15C247.92,49.59,256.35,42.18,267.29,42.18Zm0,31.32c7.42,0,9.36-6.62,9.36-12.82,0-5.69-3-11-9.36-11s-9.29,5.47-9.29,11C258,66.8,259.95,73.5,267.29,73.5Z" transform="translate(-58.42 -27.06)"/><path d="M327.63,43V76.52c0,10.08-4,19.59-19.59,19.59a32.61,32.61,0,0,1-12.82-2.52l.79-8.21c3,1.58,7.78,3.24,10.8,3.24,10.66,0,11.16-8,11.16-14.4h-.14c-1.8,3.17-6.12,5.9-11.52,5.9-10.95,0-15.12-8.78-15.12-18.72,0-8.93,4.61-19.23,15.7-19.23,4.9,0,8.71,1.66,11.38,5.9h.14V43ZM318,61.19c0-6.34-2.45-11.52-8.07-11.52-6.55,0-8.64,6-8.64,11.74,0,5,2.66,11.23,8.21,11.23C315.53,72.63,318,67.38,318,61.19Z" transform="translate(-58.42 -27.06)"/><path d="M337.06,27.06h9.65v9.22h-9.65Zm0,16h9.65V80.12h-9.65Z" transform="translate(-58.42 -27.06)"/><path d="M356.14,43h9.14v5h.14c3-4.25,7.13-5.9,12.17-5.9,8.78,0,12.6,6.19,12.6,14.55v23.4h-9.65V60.32c0-4.54-.07-10.66-6.26-10.66-7,0-8.5,7.56-8.5,12.31V80.12h-9.65Z" transform="translate(-58.42 -27.06)"/></svg>