<?xml version="1.0" encoding="utf-8"?>
<!-- Generator: Adobe Illustrator 21.0.0, SVG Export Plug-In . SVG Version: 6.00 Build 0)  -->
<svg version="1.1" id="Layer_1" xmlns="http://www.w3.org/2000/svg" xmlns:xlink="http://www.w3.org/1999/xlink" x="0px" y="0px"
	 viewBox="0 0 94 64" style="enable-background:new 0 0 94 64;" xml:space="preserve">
<style type="text/css">
	.st0{fill:none;stroke:#000000;stroke-width:3;stroke-miterlimit:10;}
</style>
<rect x="2" y="2" class="st0" width="90" height="60"/>
<line class="st0" x1="48.5" y1="19" x2="85.5" y2="19"/>
<line class="st0" x1="48.5" y1="33" x2="85.5" y2="33"/>
<line class="st0" x1="48.5" y1="47" x2="85.5" y2="47"/>
<path d="M38.1,42.4c-2.1-0.7-7-2.6-7-2.6c-1.6-0.5-1.6-1.9-1.7-3.5v-0.2c2.5-2.1,4.4-5.6,4.4-9.4c0-8.2-3.5-11.3-8.8-11.3
	c-3.7,0-8.8,2.1-8.8,11.3c0,3.6,1.9,7.1,4.4,9.4v0.2c0,1.6-0.2,3-1.8,3.5c0,0-5.1,1.9-7,2.6c-2.3,0.7-4.4,1.7-4.4,4.3v1.7h35v-1.7
	C42.5,44.7,41.1,43.3,38.1,42.4z"/>
</svg>
