<svg xmlns="http://www.w3.org/2000/svg" viewBox="0 0 595.28 469.53"><defs><style>.a{fill:#949599;}</style></defs><title>eReolen - Grayscale</title><path class="a" d="M171.94,232.77H157.29v34.45h-25V156.39h46.1c27,0,36.94,10.65,36.94,31.45v13.65c0,13.81-5,23.13-16.14,27.79L226,267.22H196.4Zm18.47-42.6c0-8.32-3.16-11.65-13.31-11.65H157.29v32.62H177.1c10.65,0,13.31-3.83,13.31-12.15Z"/><path class="a" d="M252.47,235.1v2.33c0,9.32,3.66,11.82,14.65,11.82a94.33,94.33,0,0,0,24.62-3.5l3.5,18a96.59,96.59,0,0,1-30.45,5.16c-26.3,0-36.28-13-36.28-33V217c0-17.47,7.82-32.44,34.78-32.44s32.78,16,32.78,33.61v17Zm21-21.46c0-5.66-1.66-10.32-10-10.32s-11,4.66-11,10.32v3.49h21Z"/><path class="a" d="M305.21,236.1V217.3c0-16.64,7.83-32.78,36.62-32.78s36.61,16.14,36.61,32.78v18.8c0,16.64-7.82,32.79-36.61,32.79S305.21,252.74,305.21,236.1Zm49.27.67V216.63c0-7.65-4-12-12.65-12s-12.65,4.33-12.65,12v20.14c0,7.65,4,12,12.65,12S354.48,244.42,354.48,236.77Z"/><path class="a" d="M391.74,267.22V153.06l24-3.33V267.22Z"/><path class="a" d="M453,235.1v2.33c0,9.32,3.66,11.82,14.64,11.82a94.4,94.4,0,0,0,24.63-3.5l3.49,18a96.54,96.54,0,0,1-30.45,5.16c-26.3,0-36.28-13-36.28-33V217c0-17.47,7.82-32.44,34.78-32.44s32.78,16,32.78,33.61v17Zm21-21.46c0-5.66-1.66-10.32-10-10.32s-11,4.66-11,10.32v3.49h21Z"/><path class="a" d="M557.14,267.22V213.64c0-3.67-1.66-5.83-5.83-5.83s-12.31,3-17.47,5.83v53.58h-24v-81h17.8l2.5,6.16c10-4.83,23-7.82,32.28-7.82,13.82,0,18.64,10.31,18.64,25.95v56.75Z"/><path class="a" d="M70.53,155.34c-34.11,0-56.35,24.79-56.35,57.07,0,33.12,23.46,57.08,59.41,57.08,8.65,0,19.63-1.83,27.45-5.49l-4.32-12.81a75.11,75.11,0,0,1-23.63,4c-24.47,0-43.44-15.8-43.44-42.77,0-25.12,16.05-43.26,40.18-43.26,25.13,0,36.88,12.35,32.54,32.89,0,0-2.38,12.5-19.17,20.3h0c-2.39,1.11-2.38,1.09-6,2.6A49.45,49.45,0,0,1,62,228c-5,0-4.92-2.74-4.35-5.95l.45-2.63c2.64-.68,4-1,10.76-3.09C84.12,211.67,90.64,206,90.64,196c0-9-7.21-14.53-17.85-14.53-16.82,0-23,8-25.4,21.16l-3,16.93c-2.06,11.68.91,20.38,15.67,20.38A59.82,59.82,0,0,0,76,237.71c39.27-10.24,42.33-36.14,42.43-36.78C122.13,177.17,103.32,155.34,70.53,155.34Zm-9.18,46c.91-5.26,4-9.15,10.3-9.15,3.66,0,5.83,1.83,5.83,4.35,0,3.66-2.63,6.06-8.81,8-5.6,1.71-6.41,1.94-8.35,2.51Z"/></svg>
