<svg xmlns="http://www.w3.org/2000/svg" viewBox="0 0 595.28 440.94"><defs><style>.a{fill:#bababa;}.b{fill:#949599;}</style></defs><title>eReolen Global - Greyscale</title><path class="a" d="M475.37,232V190.62l-3.46.47V232ZM461,226.52a16.31,16.31,0,0,1-8.89,3c-4.05,0-4.77-1.55-4.77-4.95,0-3.82,1.2-5,5.19-5H461Zm3.46-15.75c0-5.42-3-8.41-10.5-8.41A36.73,36.73,0,0,0,445,203.5l.53,2.92a44.93,44.93,0,0,1,8.59-.95c4.77,0,6.86,1.31,6.86,5.3v5.67h-8.59c-5.72,0-8.53,1.91-8.53,8.05,0,5.19,2.39,8.11,7.52,8.11a18.36,18.36,0,0,0,9.84-2.86l.24,2.26h3Zm-44.73-2.56a17.65,17.65,0,0,1,9.07-2.51c3.81,0,5.36,1.61,5.36,5.07v11.69c0,4.36-1.49,7-7.75,7a37.33,37.33,0,0,1-6.68-.6Zm17.89,2.62c0-5.13-2.5-8.47-8.35-8.47a20.54,20.54,0,0,0-9.54,2.21V190.62l-3.46.47v40.44a51,51,0,0,0,9.72,1.07c8.77,0,11.63-3.76,11.63-10.26Zm-31.69,11.33c0,4.89-2.38,7.34-7.81,7.34s-7.81-2.45-7.81-7.34V212.8c0-4.89,2.38-7.33,7.81-7.33s7.81,2.44,7.81,7.33Zm3.46-.11v-9.13c0-6-3.1-10.56-11.27-10.56s-11.28,4.6-11.28,10.56v9.13c0,6,3.11,10.55,11.28,10.55s11.27-4.59,11.27-10.55M379.9,232V190.62l-3.46.47V232Zm-32.57-28.68c0-6.09,2.33-8.47,9.72-8.47a69.58,69.58,0,0,1,10.5,1l.36-3A58.44,58.44,0,0,0,357,191.69c-9.66,0-13.18,4.11-13.18,11.57V221c0,7.4,3,11.57,12.71,11.57a46.06,46.06,0,0,0,12.1-1.67V214.47h-3.51v14.08a40.25,40.25,0,0,1-8.35.89c-7.46,0-9.43-2.62-9.43-8.47Z"/><path class="b" d="M173.89,219.73h-5.13V231.8H160V193h16.17c9.45,0,13,3.73,13,11v4.79c0,4.84-1.75,8.11-5.66,9.74l9.39,13.3H182.47Zm6.48-14.94c0-2.92-1.11-4.08-4.67-4.08h-6.94v11.43h6.94c3.73,0,4.67-1.34,4.67-4.26Z"/><path class="b" d="M202.12,220.54v.82c0,3.27,1.29,4.14,5.14,4.14a33.12,33.12,0,0,0,8.63-1.22l1.23,6.3a34,34,0,0,1-10.68,1.81c-9.22,0-12.72-4.55-12.72-11.55v-6.65c0-6.13,2.75-11.38,12.19-11.38s11.5,5.6,11.5,11.78v5.95Zm7.36-7.52c0-2-.59-3.62-3.5-3.62s-3.86,1.63-3.86,3.62v1.22h7.36Z"/><path class="b" d="M220.62,220.9v-6.6c0-5.83,2.74-11.49,12.83-11.49s12.84,5.66,12.84,11.49v6.6c0,5.83-2.74,11.49-12.84,11.49s-12.83-5.66-12.83-11.49m17.27.23v-7.06c0-2.69-1.4-4.2-4.44-4.2s-4.43,1.51-4.43,4.2v7.06c0,2.68,1.4,4.2,4.43,4.2s4.44-1.52,4.44-4.2"/><polygon class="b" points="250.95 231.81 250.95 191.78 259.35 190.61 259.35 231.81 250.95 231.81"/><path class="b" d="M272.42,220.54v.82c0,3.27,1.28,4.14,5.13,4.14a33.13,33.13,0,0,0,8.64-1.22l1.22,6.3a33.89,33.89,0,0,1-10.67,1.81c-9.22,0-12.72-4.55-12.72-11.55v-6.65c0-6.13,2.74-11.38,12.19-11.38s11.49,5.6,11.49,11.78v5.95Zm7.35-7.52c0-2-.58-3.62-3.5-3.62s-3.85,1.63-3.85,3.62v1.22h7.35Z"/><path class="b" d="M308.94,231.8V213a1.8,1.8,0,0,0-2-2.05,16.53,16.53,0,0,0-6.13,2.05V231.8h-8.4V203.39h6.24l.88,2.16a28.72,28.72,0,0,1,11.32-2.74c4.84,0,6.53,3.61,6.53,9.1V231.8Z"/><path class="b" d="M138.34,192.58c-12,0-19.76,8.69-19.76,20,0,11.61,8.23,20,20.83,20a24.52,24.52,0,0,0,9.62-1.93l-1.51-4.49a26.13,26.13,0,0,1-8.29,1.4c-8.57,0-15.23-5.54-15.23-15,0-8.81,5.63-15.17,14.09-15.17,8.81,0,12.93,4.33,11.41,11.53,0,0-.84,4.38-6.72,7.12h0c-.84.39-.84.38-2.09.91a17.37,17.37,0,0,1-5.33,1.09c-1.77,0-1.73-1-1.53-2.09l.16-.92c.93-.24,1.41-.36,3.78-1.09,5.33-1.64,7.62-3.65,7.62-7.14,0-3.17-2.53-5.09-6.26-5.09-5.9,0-8.06,2.81-8.9,7.42l-1,5.94c-.72,4.09.32,7.14,5.5,7.14a21.09,21.09,0,0,0,5.57-.78c13.77-3.59,14.84-12.67,14.87-12.9,1.31-8.32-5.29-16-16.78-16m-3.22,16.14a3.44,3.44,0,0,1,3.61-3.21c1.28,0,2,.64,2,1.52,0,1.29-.92,2.13-3.08,2.81l-2.93.88Z"/></svg>
