<?xml version="1.0" encoding="UTF-8"?>
<svg width="1200px" height="630px" viewBox="0 0 1200 630" version="1.1" xmlns="http://www.w3.org/2000/svg" xmlns:xlink="http://www.w3.org/1999/xlink">
    <!-- Generator: Sketch 55.1 (78136) - https://sketchapp.com -->
    <title>Logo Copy 7</title>
    <desc>Created with Sketch.</desc>
    <g id="Logo-Copy-7" stroke="none" stroke-width="1" fill="none" fill-rule="evenodd">
        <g id="Logo/Læsekompas-logo" transform="translate(168.000000, 210.000000)" fill="#949599">
            <g id="Logo/Logotype-petroleum" transform="translate(128.000000, 55.000000)">
                <path d="M4.35045783,5.26956522 L21.4014458,5.26956522 L21.4014458,65.1318261 L58.345253,65.1318261 L58.345253,79.0434783 L4.35045783,79.0434783 L4.35045783,5.26956522 Z M160.545928,50.4824348 C160.545928,52.2389653 160.440676,53.8198191 160.230169,55.2250435 L117.28694,55.2250435 C118.058799,58.8083657 119.848082,61.6187724 122.654843,63.6563478 C125.461604,65.6939232 129.040171,66.7126957 133.390651,66.7126957 C138.863835,66.7126957 143.635257,64.8859313 147.70506,61.2323478 L156.44106,70.7175652 C153.704468,73.7387977 150.353948,76.0222531 146.389398,77.568 C142.424848,79.1137469 137.986723,79.8866087 133.074892,79.8866087 C128.092891,79.8866087 123.496889,79.0786168 119.286747,77.4626087 C115.076605,75.8466006 111.498039,73.3874948 108.55094,70.0852174 C104.20046,76.6195109 96.973159,79.8866087 86.8688193,79.8866087 C79.5010716,79.8866087 73.6946718,78.2706249 69.4494458,75.0386087 C65.2042197,71.8065925 63.0816386,67.4855923 63.0816386,62.0754783 C63.0816386,57.1571928 65.0814258,53.1874934 69.0810602,50.1662609 C73.0806947,47.1450284 79.1853083,45.6344348 87.3950843,45.6344348 L100.446458,45.6344348 C100.446458,42.1213737 99.3588542,39.3987923 97.1836145,37.4666087 C95.0083747,35.5344251 91.7806479,34.5683478 87.5003373,34.5683478 C84.4830693,34.5683478 81.5009304,35.042604 78.5538313,35.9911304 C75.6067323,36.9396569 73.1157692,38.221905 71.0808675,39.837913 L65.1866988,28.3502609 C68.2741359,26.172163 71.9579545,24.485919 76.2382651,23.2914783 C80.5185756,22.0970375 84.9391579,21.4998261 89.5001446,21.4998261 C99.0431321,21.4998261 105.989761,24.1697124 110.340241,29.5095652 C112.936495,26.9801613 116.023886,25.0128766 119.602506,23.6076522 C123.181126,22.2024278 127.040365,21.4998261 131.180337,21.4998261 C136.583352,21.4998261 141.530194,22.6942489 146.021012,25.0831304 C150.51183,27.4720119 154.055312,30.87963 156.651566,35.306087 C159.24782,39.7325439 160.545928,44.7912759 160.545928,50.4824348 Z M130.969831,33.936 C127.531549,33.936 124.514326,34.9547724 121.918072,36.9923478 C119.321818,39.0299232 117.707955,41.9105901 117.076434,45.6344348 L144.652723,45.6344348 C144.091371,41.9105901 142.530133,39.0299232 139.968964,36.9923478 C137.407794,34.9547724 134.408114,33.936 130.969831,33.936 Z M88.5528675,68.8205217 C92.2718258,68.8205217 95.1837967,67.8368794 97.2888675,65.8695652 C99.3939382,63.902251 100.446458,61.2323647 100.446458,57.8598261 L100.446458,55.2250435 L89.1843855,55.2250435 C82.4481591,55.2250435 79.0800964,57.4031087 79.0800964,61.7593043 C79.0800964,64.0076634 79.9045701,65.7466025 81.5535422,66.9761739 C83.2025143,68.2057453 85.5355994,68.8205217 88.5528675,68.8205217 Z M190.648289,79.8866087 C185.946964,79.8866087 181.350962,79.3069623 176.860145,78.1476522 C172.369327,76.988342 168.79076,75.5304436 166.124337,73.773913 L171.597494,61.970087 C174.123579,63.586095 177.175886,64.9034732 180.754506,65.9222609 C184.333126,66.9410486 187.841525,67.4504348 191.279807,67.4504348 C198.226541,67.4504348 201.699855,65.7290607 201.699855,62.2862609 C201.699855,60.6702528 200.752588,59.51096 198.858024,58.8083478 C196.96346,58.1057356 194.05149,57.5085242 190.122024,57.0166957 C185.490868,56.3140834 181.666714,55.5060915 178.649446,54.5926957 C175.632178,53.6792998 173.018421,52.0633159 170.808096,49.7446957 C168.597772,47.4260754 167.492627,44.1238475 167.492627,39.837913 C167.492627,36.2545908 168.527604,33.0753182 170.59759,30.3 C172.667577,27.5246818 175.684799,25.3641816 179.649349,23.8184348 C183.613899,22.2726879 188.297612,21.4998261 193.700627,21.4998261 C197.700261,21.4998261 201.682293,21.9389521 205.646843,22.8172174 C209.611393,23.6954827 212.891746,24.9074705 215.488,26.4532174 L210.014843,38.1516522 C205.032843,35.3412033 199.594825,33.936 193.700627,33.936 C190.192175,33.936 187.560876,34.4278212 185.806651,35.4114783 C184.052425,36.3951354 183.175325,37.6598184 183.175325,39.2055652 C183.175325,40.9620957 184.122593,42.1916487 186.017157,42.8942609 C187.91172,43.5968731 190.928943,44.2643447 195.068916,44.8966957 C199.700071,45.6695691 203.489142,46.495126 206.436241,47.3733913 C209.38334,48.2516566 211.944471,49.8500754 214.119711,52.1686957 C216.294951,54.4873159 217.382554,57.7192836 217.382554,61.8646957 C217.382554,65.3777567 216.330035,68.5043341 214.224964,71.2445217 C212.119893,73.9847094 209.050044,76.1100794 205.015325,77.6206957 C200.980606,79.1313119 196.191642,79.8866087 190.648289,79.8866087 Z M282.955181,50.904 C282.955181,51.1147837 282.849929,52.5902472 282.639422,55.3304348 L239.801446,55.3304348 C240.573305,58.8434958 242.397672,61.6187724 245.274602,63.6563478 C248.151532,65.6939232 251.730099,66.7126957 256.01041,66.7126957 C258.957509,66.7126957 261.571266,66.2735696 263.851759,65.3953043 C266.132252,64.5170391 268.254834,63.1294008 270.219566,61.2323478 L278.955566,70.7175652 C273.62272,76.8302914 265.834075,79.8866087 255.589398,79.8866087 C249.204016,79.8866087 243.555494,78.6394907 238.643663,76.1452174 C233.731831,73.6509441 229.94276,70.1906308 227.276337,65.7641739 C224.609914,61.337717 223.276723,56.3141151 223.276723,50.6932174 C223.276723,45.1425809 224.592372,40.136544 227.223711,35.6749565 C229.855049,31.213369 233.4687,27.7354907 238.064771,25.2412174 C242.660842,22.7469441 247.800646,21.4998261 253.484337,21.4998261 C259.02769,21.4998261 264.0447,22.6942489 268.535518,25.0831304 C273.026336,27.4720119 276.552276,30.8971951 279.113446,35.3587826 C281.674615,39.8203701 282.955181,45.0020574 282.955181,50.904 Z M253.58959,33.936 C249.870632,33.936 246.748157,34.9899025 244.222072,37.0977391 C241.695987,39.2055758 240.152292,42.0862426 239.59094,45.7398261 L267.482988,45.7398261 C266.921636,42.1565038 265.37794,39.293402 262.851855,37.1504348 C260.325771,35.0074675 257.23838,33.936 253.58959,33.936 Z M318.21494,56.805913 L310.320964,64.6048696 L310.320964,79.0434783 L293.901494,79.0434783 L293.901494,0.843130435 L310.320964,0.843130435 L310.320964,45.1074783 L334.318651,22.3429565 L353.895711,22.3429565 L330.319036,46.3721739 L356.000771,79.0434783 L336.107952,79.0434783 L318.21494,56.805913 Z M390.313253,79.8866087 C384.348886,79.8866087 378.998578,78.6394907 374.262169,76.1452174 C369.525759,73.6509441 365.824399,70.1906308 363.157976,65.7641739 C360.491553,61.337717 359.158361,56.3141151 359.158361,50.6932174 C359.158361,45.0723197 360.491553,40.0487178 363.157976,35.6222609 C365.824399,31.195804 369.525759,27.7354907 374.262169,25.2412174 C378.998578,22.7469441 384.348886,21.4998261 390.313253,21.4998261 C396.27762,21.4998261 401.610386,22.7469441 406.311711,25.2412174 C411.013036,27.7354907 414.696854,31.195804 417.363277,35.6222609 C420.0297,40.0487178 421.362892,45.0723197 421.362892,50.6932174 C421.362892,56.3141151 420.0297,61.337717 417.363277,65.7641739 C414.696854,70.1906308 411.013036,73.6509441 406.311711,76.1452174 C401.610386,78.6394907 396.27762,79.8866087 390.313253,79.8866087 Z M390.313253,66.3965217 C394.523395,66.3965217 397.979167,64.9737534 400.680675,62.1281739 C403.382182,59.2825945 404.732916,55.4709804 404.732916,50.6932174 C404.732916,45.9154544 403.382182,42.1038403 400.680675,39.2582609 C397.979167,36.4126814 394.523395,34.989913 390.313253,34.989913 C386.103111,34.989913 382.629797,36.4126814 379.893205,39.2582609 C377.156613,42.1038403 375.788337,45.9154544 375.788337,50.6932174 C375.788337,55.4709804 377.156613,59.2825945 379.893205,62.1281739 C382.629797,64.9737534 386.103111,66.3965217 390.313253,66.3965217 Z M504.82853,21.4998261 C511.915602,21.4998261 517.546582,23.5900661 521.721639,27.7706087 C525.896696,31.9511513 527.984193,38.2218712 527.984193,46.5829565 L527.984193,79.0434783 L511.564723,79.0434783 L511.564723,49.1123478 C511.564723,44.6156297 510.634997,41.2607067 508.775518,39.0474783 C506.916039,36.8342498 504.267198,35.7276522 500.828916,35.7276522 C496.969619,35.7276522 493.917312,36.9747701 491.671904,39.4690435 C489.426495,41.9633168 488.303807,45.6695406 488.303807,50.5878261 L488.303807,79.0434783 L471.884337,79.0434783 L471.884337,49.1123478 C471.884337,40.1891728 468.305771,35.7276522 461.14853,35.7276522 C457.359403,35.7276522 454.34218,36.9747701 452.096771,39.4690435 C449.851362,41.9633168 448.728675,45.6695406 448.728675,50.5878261 L448.728675,79.0434783 L432.309205,79.0434783 L432.309205,22.3429565 L447.991904,22.3429565 L447.991904,28.8772174 C450.096974,26.4883359 452.675647,24.6615715 455.728,23.3968696 C458.780353,22.1321676 462.130873,21.4998261 465.779663,21.4998261 C469.779297,21.4998261 473.392948,22.290253 476.620723,23.8711304 C479.848498,25.4520079 482.444713,27.7530284 484.409446,30.7742609 C486.725024,27.8232896 489.654536,25.5398342 493.198072,23.9238261 C496.741608,22.307818 500.618389,21.4998261 504.82853,21.4998261 Z M576.190072,21.4998261 C581.452749,21.4998261 586.241713,22.711814 590.557108,25.1358261 C594.872504,27.5598382 598.258108,30.9674563 600.714024,35.3587826 C603.16994,39.7501089 604.39788,44.8615361 604.39788,50.6932174 C604.39788,56.5248987 603.16994,61.6363259 600.714024,66.0276522 C598.258108,70.4189785 594.872504,73.8265966 590.557108,76.2506087 C586.241713,78.6746208 581.452749,79.8866087 576.190072,79.8866087 C568.962663,79.8866087 563.279057,77.6031533 559.139084,73.0361739 L559.139084,99.4893913 L542.719614,99.4893913 L542.719614,22.3429565 L558.402313,22.3429565 L558.402313,28.8772174 C562.472117,23.9589319 568.40131,21.4998261 576.190072,21.4998261 Z M573.348241,66.3965217 C577.558382,66.3965217 581.014155,64.9737534 583.715663,62.1281739 C586.41717,59.2825945 587.767904,55.4709804 587.767904,50.6932174 C587.767904,45.9154544 586.41717,42.1038403 583.715663,39.2582609 C581.014155,36.4126814 577.558382,34.989913 573.348241,34.989913 C569.138099,34.989913 565.682327,36.4126814 562.980819,39.2582609 C560.279312,42.1038403 558.928578,45.9154544 558.928578,50.6932174 C558.928578,55.4709804 560.279312,59.2825945 562.980819,62.1281739 C565.682327,64.9737534 569.138099,66.3965217 573.348241,66.3965217 Z M638.184096,21.4998261 C646.955225,21.4998261 653.69135,23.5900661 658.392675,27.7706087 C663.093999,31.9511513 665.444627,38.2570013 665.444627,46.6883478 L665.444627,79.0434783 L650.077687,79.0434783 L650.077687,71.9822609 C646.99025,77.2518524 641.236476,79.8866087 632.816193,79.8866087 C628.465713,79.8866087 624.694185,79.1488769 621.501494,77.6733913 C618.308803,76.1979057 615.870466,74.1603608 614.18641,71.5606957 C612.502353,68.9610305 611.660337,66.0101035 611.660337,62.7078261 C611.660337,57.4382345 613.642583,53.2928847 617.607133,50.2716522 C621.571682,47.2504197 627.693838,45.7398261 635.973783,45.7398261 L649.025157,45.7398261 C649.025157,42.1565038 647.937553,39.3987923 645.762313,37.4666087 C643.587073,35.5344251 640.324263,34.5683478 635.973783,34.5683478 C632.956515,34.5683478 629.991918,35.042604 627.079904,35.9911304 C624.167889,36.9396569 621.694468,38.221905 619.659566,39.837913 L613.765398,28.3502609 C616.852835,26.172163 620.554195,24.485919 624.86959,23.2914783 C629.184985,22.0970375 633.62311,21.4998261 638.184096,21.4998261 Z M636.92106,68.8205217 C639.727821,68.8205217 642.218784,68.1706152 644.394024,66.8707826 C646.569264,65.57095 648.112959,63.6563605 649.025157,61.1269565 L649.025157,55.3304348 L637.763084,55.3304348 C631.026858,55.3304348 627.658795,57.54363 627.658795,61.970087 C627.658795,64.0779236 628.483269,65.7466025 630.132241,66.9761739 C631.781213,68.2057453 634.04413,68.8205217 636.92106,68.8205217 Z M699.336096,79.8866087 C694.634772,79.8866087 690.038769,79.3069623 685.547952,78.1476522 C681.057134,76.988342 677.478568,75.5304436 674.812145,73.773913 L680.285301,61.970087 C682.811386,63.586095 685.863693,64.9034732 689.442313,65.9222609 C693.020934,66.9410486 696.529332,67.4504348 699.967614,67.4504348 C706.914348,67.4504348 710.387663,65.7290607 710.387663,62.2862609 C710.387663,60.6702528 709.440395,59.51096 707.545831,58.8083478 C705.651268,58.1057356 702.739297,57.5085242 698.809831,57.0166957 C694.178676,56.3140834 690.354521,55.5060915 687.337253,54.5926957 C684.319985,53.6792998 681.706228,52.0633159 679.495904,49.7446957 C677.285579,47.4260754 676.180434,44.1238475 676.180434,39.837913 C676.180434,36.2545908 677.215411,33.0753182 679.285398,30.3 C681.355384,27.5246818 684.372607,25.3641816 688.337157,23.8184348 C692.301707,22.2726879 696.985419,21.4998261 702.388434,21.4998261 C706.388068,21.4998261 710.370101,21.9389521 714.334651,22.8172174 C718.299201,23.6954827 721.579553,24.9074705 724.175807,26.4532174 L718.702651,38.1516522 C713.72065,35.3412033 708.282632,33.936 702.388434,33.936 C698.879982,33.936 696.248683,34.4278212 694.494458,35.4114783 C692.740232,36.3951354 691.863133,37.6598184 691.863133,39.2055652 C691.863133,40.9620957 692.8104,42.1916487 694.704964,42.8942609 C696.599528,43.5968731 699.61675,44.2643447 703.756723,44.8966957 C708.387879,45.6695691 712.176949,46.495126 715.124048,47.3733913 C718.071147,48.2516566 720.632278,49.8500754 722.807518,52.1686957 C724.982758,54.4873159 726.070361,57.7192836 726.070361,61.8646957 C726.070361,65.3777567 725.017842,68.5043341 722.912771,71.2445217 C720.8077,73.9847094 717.737851,76.1100794 713.703133,77.6206957 C709.668414,79.1313119 704.879449,79.8866087 699.336096,79.8866087 Z" id="Læsekompas"></path>
            </g>
            <g id="Logo/Diblio-figur" stroke-width="1">
                <g id="Diblio-figur">
                    <path d="M1.50506087,98.0139 L1.50506087,106.5225 C1.50506087,108.4641 3.10227826,110.0391 5.07323478,110.0391 L79.9884522,110.0391 C81.9594087,110.0391 83.5566261,108.4641 83.5566261,106.5225 L83.5566261,98.0139 C83.5566261,96.0723 81.9594087,94.4973 79.9884522,94.4973 L5.07323478,94.4973 C3.10227826,94.4973 1.50506087,96.0723 1.50506087,98.0139" id="Fill-1"></path>
                    <path d="M1.50506087,73.17576 L1.50506087,81.68376 C1.50506087,83.62596 3.10227826,85.20096 5.07262609,85.20096 L56.4745391,85.20096 C58.444887,85.20096 60.0421043,83.62596 60.0421043,81.68376 L60.0421043,73.17576 C60.0421043,71.23356 58.444887,69.65856 56.4745391,69.65856 L5.07262609,69.65856 C3.10227826,69.65856 1.50506087,71.23356 1.50506087,73.17576" id="Fill-4"></path>
                    <path d="M1.50506087,122.8524 L1.50506087,131.3604 C1.50506087,133.3026 3.10227826,134.8776 5.07262609,134.8776 L68.2314957,134.8776 C70.2018435,134.8776 71.7990609,133.3026 71.7990609,131.3604 L71.7990609,122.8524 C71.7990609,120.9102 70.2018435,119.3352 68.2314957,119.3352 L5.07262609,119.3352 C3.10227826,119.3352 1.50506087,120.9102 1.50506087,122.8524" id="Fill-6"></path>
                    <path d="M30.7432696,60.60798 C13.7917043,60.60798 -0.00012173913,47.01378 -0.00012173913,30.30378 C-0.00012173913,13.59438 13.7917043,0.00018 30.7432696,0.00018 C47.6954435,0.00018 61.4860522,13.59438 61.4860522,30.30378 C61.4860522,47.01378 47.6954435,60.60798 30.7432696,60.60798 M30.7432696,15.21078 C22.3000522,15.21078 15.4309217,21.98178 15.4309217,30.30378 C15.4309217,38.62638 22.3000522,45.39738 30.7432696,45.39738 C39.1858783,45.39738 46.0550087,38.62638 46.0550087,30.30378 C46.0550087,21.98178 39.1858783,15.21078 30.7432696,15.21078" id="Fill-8"></path>
                </g>
            </g>
        </g>
    </g>
</svg>
