<?xml version="1.0" encoding="UTF-8"?>
<svg width="28px" height="32px" viewBox="0 0 28 32" version="1.1" xmlns="http://www.w3.org/2000/svg" xmlns:xlink="http://www.w3.org/1999/xlink">
    <!-- Generator: Sketch 50.1 (55044) - http://www.bohemiancoding.com/sketch -->
    <title>Cube/white</title>
    <desc>Created with Sketch.</desc>
    <defs></defs>
    <g id="Cube/white" stroke="none" stroke-width="1" fill="none" fill-rule="evenodd">
        <path d="M13.3454776,1.61265872 L13.3454776,9.65891366 C13.3454776,9.98525405 13.6100779,10.2490525 13.9356164,10.2490525 C14.2619568,10.2490525 14.5265571,9.98525405 14.5265571,9.65891366 L14.5265571,1.61265872 L26.1000144,8.29501933 L13.9356164,15.3181531 L1.77121845,8.29501933 L13.3454776,1.61265872 Z M8.69252116,19.3561142 C8.52975187,19.073072 8.16893327,18.9768537 7.88589112,19.139623 L1.18107957,22.6908799 L1.18107957,9.31733871 L13.3454776,16.3404724 L13.3454776,30.3875417 L1.77923664,23.7091902 L8.47683181,20.1627442 C8.75907214,19.9991731 8.85609226,19.6375527 8.69252116,19.3561142 Z M19.8923307,19.0770811 C19.6092886,18.9143118 19.24847,19.011332 19.0857007,19.2935723 C18.9229314,19.5758126 19.0191497,19.9374331 19.30139,20.1002023 L26.1040235,23.7027757 L14.5265571,30.3875417 L14.5265571,16.3404724 L26.6909551,9.31733871 L26.6909551,22.677249 L19.8923307,19.0770811 Z M27.5761634,7.78345872 L14.2306859,0.0787787292 C14.0478711,-0.0262595764 13.8233618,-0.0262595764 13.640547,0.0787787292 L0.295871258,7.78345872 C0.113056497,7.88929885 0,8.08414089 0,8.29501933 L0,23.7051811 C0,23.9152577 0.113056497,24.1109016 0.295871258,24.2159399 L13.640547,31.9214217 C13.649367,31.9262326 13.6597907,31.924629 13.6686107,31.9286381 C13.7495944,31.9703327 13.8377945,32 13.9356164,32 C14.0334384,32 14.1216385,31.9703327 14.2026222,31.9286381 C14.212244,31.924629 14.2226677,31.9262326 14.2306859,31.9214217 L27.5761634,24.2159399 C27.7589782,24.1109016 27.8712329,23.9152577 27.8712329,23.7051811 L27.8712329,8.29501933 C27.8712329,8.08414089 27.7589782,7.88929885 27.5761634,7.78345872 Z" id="Fill-1" fill="#FFFFFF"></path>
    </g>
</svg>