<?xml version="1.0" encoding="utf-8"?>
<!-- Generator: Adobe Illustrator 22.1.0, SVG Export Plug-In . SVG Version: 6.00 Build 0)  -->
<svg version="1.1" id="Layer_1" xmlns="http://www.w3.org/2000/svg" xmlns:xlink="http://www.w3.org/1999/xlink" x="0px" y="0px"
	 viewBox="0 0 481 123.7" style="enable-background:new 0 0 481 123.7;" xml:space="preserve">
<style type="text/css">
	.st0{clip-path:url(#SVGID_2_);}
	.st1{clip-path:url(#SVGID_4_);fill:#020203;}
	.st2{clip-path:url(#SVGID_6_);}
	.st3{clip-path:url(#SVGID_8_);fill:#020203;}
	.st4{clip-path:url(#SVGID_10_);}
	.st5{clip-path:url(#SVGID_12_);}
</style>
<g>
	<defs>
		<path id="SVGID_1_" d="M455.1,81.2l-3.1,3.4v8.2h-7.5V61.7h7.5v13.7l2.6-4l6.7-9.8h9.3l-10.5,13.8l10.5,17.4h-8.9L455.1,81.2z
			 M439.3,79.6h-11.8V87h13.9v5.8H420V61.7h21.5v5.8h-14V74h11.8V79.6z M416.9,67.5h-9.3v25.3H400V67.5h-9.2v-5.8h26V67.5z
			 M382.8,76.6c0-3.1-0.5-5.4-1.5-7c-1-1.6-2.5-2.4-4.4-2.4c-3.8,0-5.7,2.8-6,8.5l0,2.3c0,3,0.5,5.4,1.5,7c1,1.6,2.5,2.5,4.5,2.5
			c1.9,0,3.4-0.8,4.4-2.4c1-1.6,1.5-3.9,1.6-6.9V76.6z M390.4,77.9c0,3-0.6,5.7-1.7,8.1c-1.1,2.3-2.7,4.1-4.8,5.4
			c-2.1,1.3-4.4,1.9-7.1,1.9c-2.6,0-5-0.6-7.1-1.8c-2.1-1.2-3.7-3-4.8-5.2c-1.1-2.3-1.7-4.9-1.8-7.8v-1.8c0-3,0.6-5.7,1.7-8.1
			c1.1-2.3,2.7-4.1,4.8-5.4c2.1-1.3,4.5-1.9,7.1-1.9c2.6,0,5,0.6,7.1,1.9c2.1,1.3,3.7,3,4.8,5.4c1.1,2.3,1.7,5,1.7,8V77.9z
			 M358.8,92.8h-7.5V61.7h7.5V92.8z M334.6,87h13.1v5.8h-20.6V61.7h7.5V87z M306.4,74.6h3.9c1.6,0,2.8-0.3,3.5-0.9
			c0.7-0.6,1-1.4,1-2.6c0-1.3-0.4-2.3-1.1-2.8c-0.8-0.6-2-0.9-3.7-0.9h-3.7V74.6z M306.4,79.6V87h4.9c1.4,0,2.4-0.3,3.1-0.9
			c0.7-0.6,1.1-1.5,1.1-2.6c0-2.6-1.3-3.9-3.9-3.9H306.4z M298.9,92.8V61.7h11.2c4,0,7,0.7,9.1,2.2c2.1,1.5,3.1,3.6,3.1,6.4
			c0,1.6-0.4,3-1.1,4.1c-0.7,1.1-1.8,2-3.3,2.5c1.6,0.4,2.9,1.2,3.7,2.4c0.9,1.2,1.3,2.6,1.3,4.3c0,3-1,5.3-2.9,6.9
			c-1.9,1.5-4.8,2.3-8.6,2.3H298.9z M293.7,92.8h-7.5V61.7h7.5V92.8z M265,74.6h3.9c1.6,0,2.8-0.3,3.5-0.9c0.7-0.6,1-1.4,1-2.6
			c0-1.3-0.4-2.3-1.1-2.8c-0.8-0.6-2-0.9-3.7-0.9H265V74.6z M265,79.6V87h4.9c1.4,0,2.4-0.3,3.1-0.9c0.7-0.6,1.1-1.5,1.1-2.6
			c0-2.6-1.3-3.9-3.9-3.9H265z M257.5,92.8V61.7h11.2c4,0,7,0.7,9.1,2.2c2.1,1.5,3.1,3.6,3.1,6.4c0,1.6-0.4,3-1.1,4.1
			c-0.7,1.1-1.8,2-3.3,2.5c1.6,0.4,2.9,1.2,3.7,2.4c0.9,1.2,1.3,2.6,1.3,4.3c0,3-1,5.3-2.9,6.9c-1.9,1.5-4.8,2.3-8.6,2.3H257.5z
			 M252.3,79.6h-11.8V87h13.9v5.8H233V61.7h21.5v5.8h-14V74h11.8V79.6z M215.6,81.2l-3.1,3.4v8.2H205V61.7h7.5v13.7l2.6-4l6.7-9.8
			h9.3l-10.5,13.8l10.5,17.4h-8.9L215.6,81.2z M188.8,87h13.1v5.8h-20.6V61.7h7.5V87z M169.8,76.6c0-3.1-0.5-5.4-1.5-7
			c-1-1.6-2.5-2.4-4.4-2.4c-3.8,0-5.7,2.8-6,8.5l0,2.3c0,3,0.5,5.4,1.5,7c1,1.6,2.5,2.5,4.5,2.5c1.9,0,3.4-0.8,4.4-2.4
			c1-1.6,1.5-3.9,1.6-6.9V76.6z M177.4,77.9c0,3-0.6,5.7-1.7,8.1c-1.1,2.3-2.7,4.1-4.8,5.4c-2.1,1.3-4.4,1.9-7.1,1.9
			c-2.6,0-5-0.6-7.1-1.8c-2.1-1.2-3.7-3-4.8-5.2c-1.1-2.3-1.7-4.9-1.8-7.8v-1.8c0-3,0.6-5.7,1.7-8.1c1.1-2.3,2.7-4.1,4.8-5.4
			c2.1-1.3,4.5-1.9,7.1-1.9c2.6,0,5,0.6,7.1,1.9c2.1,1.3,3.7,3,4.8,5.4c1.1,2.3,1.7,5,1.7,8V77.9z M146.7,80.4h-12.1v12.4h-7.5V61.7
			h20.8v5.8h-13.3v7.2h12.1V80.4z"/>
	</defs>
	<clipPath id="SVGID_2_">
		<use xlink:href="#SVGID_1_"  style="overflow:visible;"/>
	</clipPath>
	<g class="st0">
		<defs>
			<rect id="SVGID_3_" x="-795.4" y="-273.1" width="1368.7" height="1219.2"/>
		</defs>
		<clipPath id="SVGID_4_">
			<use xlink:href="#SVGID_3_"  style="overflow:visible;"/>
		</clipPath>
		<rect x="121.1" y="55.2" class="st1" width="355.6" height="44.1"/>
	</g>
</g>
<g>
	<defs>
		<path id="SVGID_5_" d="M271.6,41.7h-6.6v4.1h7.7V49h-11.9V31.7h11.9V35h-7.8v3.6h6.6V41.7z M251.9,45.8h7.3V49h-11.4V31.7h4.2
			V45.8z M236.3,42.6h3.7l-1.9-6L236.3,42.6z M241,45.8h-5.7l-1,3.2h-4.5l6.3-17.3h3.9l6.4,17.3H242L241,45.8z M230.9,35h-5.2V49
			h-4.2V35h-5.1v-3.2h14.4V35z M214.7,49h-4.2V31.7h4.2V49z M207.9,46.9c-0.6,0.7-1.6,1.3-2.8,1.7c-1.2,0.4-2.6,0.7-4.1,0.7
			c-2.3,0-4.1-0.7-5.4-2.1c-1.4-1.4-2.1-3.3-2.2-5.8l0-1.5c0-1.7,0.3-3.2,0.9-4.5c0.6-1.3,1.5-2.2,2.6-2.9c1.1-0.7,2.4-1,3.9-1
			c2.2,0,3.8,0.5,5,1.5c1.2,1,1.9,2.5,2.1,4.4h-4c-0.1-1-0.5-1.7-0.9-2.1s-1.1-0.6-2-0.6c-1,0-1.9,0.4-2.4,1.3
			c-0.6,0.9-0.9,2.2-0.9,3.8v1c0,1.7,0.3,3,0.9,3.9c0.6,0.9,1.5,1.3,2.8,1.3c1.1,0,1.9-0.2,2.4-0.7v-2.7h-2.9v-2.9h7.1V46.9z
			 M190.8,49h-4.2V31.7h4.2V49z M174.8,35v10.9h1.4c1.2,0,2.1-0.4,2.8-1.3c0.6-0.9,1-2.1,1-3.8V40c0-1.7-0.3-2.9-1-3.8
			c-0.6-0.8-1.6-1.3-2.8-1.3H174.8z M170.7,49V31.7h5.6c1.5,0,2.9,0.3,4.1,1c1.2,0.7,2.2,1.7,2.9,2.9c0.7,1.3,1,2.7,1,4.2v0.8
			c0,1.6-0.3,3-1,4.3c-0.7,1.3-1.6,2.2-2.8,2.9c-1.2,0.7-2.6,1.1-4.1,1.1H170.7z M163.6,35h-5.2V49h-4.2V35h-5.1v-3.2h14.4V35z
			 M147.5,49h-4.2V31.7h4.2V49z M131.5,35v10.9h1.4c1.2,0,2.1-0.4,2.8-1.3c0.6-0.9,1-2.1,1-3.8V40c0-1.7-0.3-2.9-1-3.8
			c-0.6-0.8-1.6-1.3-2.8-1.3H131.5z M127.3,49V31.7h5.6c1.5,0,2.9,0.3,4.1,1c1.2,0.7,2.2,1.7,2.9,2.9c0.7,1.3,1,2.7,1,4.2v0.8
			c0,1.6-0.3,3-1,4.3c-0.7,1.3-1.6,2.2-2.8,2.9c-1.2,0.7-2.6,1.1-4.1,1.1H127.3z"/>
	</defs>
	<clipPath id="SVGID_6_">
		<use xlink:href="#SVGID_5_"  style="overflow:visible;"/>
	</clipPath>
	<g class="st2">
		<defs>
			<rect id="SVGID_7_" x="-795.4" y="-273.1" width="1368.7" height="1219.2"/>
		</defs>
		<clipPath id="SVGID_8_">
			<use xlink:href="#SVGID_7_"  style="overflow:visible;"/>
		</clipPath>
		<rect x="121.2" y="25.4" class="st3" width="157.7" height="29.9"/>
	</g>
</g>
<g>
	<defs>
		<path id="SVGID_9_" d="M103.9,33.2L55.6,5.3c-0.7-0.4-1.5-0.4-2.1,0L5.2,33.2c-0.7,0.4-1.1,1.1-1.1,1.9v55.8
			c0,0.8,0.4,1.5,1.1,1.8l48.3,27.9c0,0,0.1,0,0.1,0c0.3,0.2,0.6,0.2,1,0.2c0.4,0,0.7-0.1,1-0.2c0,0,0.1,0,0.1,0l48.3-27.9
			c0.7-0.4,1.1-1.1,1.1-1.8V35C105,34.2,104.6,33.5,103.9,33.2z M76.1,74c-1-0.6-2.3-0.2-2.9,0.8c-0.6,1-0.2,2.3,0.8,2.9l24.6,13
			l-41.9,24.2V64.1l44-25.4V87L76.1,74z M35.6,75c-0.6-1-1.9-1.4-2.9-0.8L8.4,87.1V38.7l44,25.4v50.8L10.6,90.8l24.2-12.8
			C35.8,77.4,36.2,76,35.6,75z M52.4,10.8v29.1c0,1.2,1,2.1,2.1,2.1c1.2,0,2.1-1,2.1-2.1V10.8L98.6,35l-44,25.4L10.6,35L52.4,10.8z"
			/>
	</defs>
	<use xlink:href="#SVGID_9_"  style="overflow:visible;fill-rule:evenodd;clip-rule:evenodd;"/>
	<clipPath id="SVGID_10_">
		<use xlink:href="#SVGID_9_"  style="overflow:visible;"/>
	</clipPath>
	<g class="st4">
		<defs>
			<rect id="SVGID_11_" x="-103" y="-526.7" width="4390.7" height="3430.2"/>
		</defs>
		<use xlink:href="#SVGID_11_"  style="overflow:visible;"/>
		<clipPath id="SVGID_12_">
			<use xlink:href="#SVGID_11_"  style="overflow:visible;"/>
		</clipPath>
		<rect x="-17.3" y="-16.4" class="st5" width="143.7" height="158.6"/>
	</g>
</g>
</svg>
