<?xml version="1.0" encoding="utf-8"?>
<!-- Generator: Adobe Illustrator 22.1.0, SVG Export Plug-In . SVG Version: 6.00 Build 0)  -->
<svg version="1.1" id="Layer_1" xmlns="http://www.w3.org/2000/svg" xmlns:xlink="http://www.w3.org/1999/xlink" x="0px" y="0px"
	 viewBox="0 0 499.6 141" style="enable-background:new 0 0 499.6 141;" xml:space="preserve">
<style type="text/css">
	.st0{clip-path:url(#SVGID_2_);}
	.st1{clip-path:url(#SVGID_4_);fill:#020203;}
	.st2{clip-path:url(#SVGID_6_);}
	.st3{clip-path:url(#SVGID_8_);fill:#020203;}
	.st4{clip-path:url(#SVGID_10_);}
	.st5{clip-path:url(#SVGID_12_);fill:#FFFFFF;}
</style>
<circle cx="73.6" cy="70.9" r="65.4"/>
<g>
	<defs>
		<path id="SVGID_1_" d="M484.1,91.2l-3.1,3.4v8.2h-7.5V71.7h7.5v13.7l2.6-4l6.7-9.8h9.3l-10.5,13.8l10.5,17.4h-8.9L484.1,91.2z
			 M468.3,89.6h-11.8V97h13.9v5.8H449V71.7h21.5v5.8h-14V84h11.8V89.6z M445.9,77.5h-9.3v25.3H429V77.5h-9.2v-5.8h26V77.5z
			 M411.8,86.6c0-3.1-0.5-5.4-1.5-7c-1-1.6-2.5-2.4-4.4-2.4c-3.8,0-5.7,2.8-6,8.5l0,2.3c0,3,0.5,5.4,1.5,7c1,1.6,2.5,2.5,4.5,2.5
			c1.9,0,3.4-0.8,4.4-2.4c1-1.6,1.5-3.9,1.6-6.9V86.6z M419.4,87.9c0,3-0.6,5.7-1.7,8.1c-1.1,2.3-2.7,4.1-4.8,5.4
			c-2.1,1.3-4.4,1.9-7.1,1.9c-2.6,0-5-0.6-7.1-1.8c-2.1-1.2-3.7-3-4.8-5.2c-1.1-2.3-1.7-4.9-1.8-7.8v-1.8c0-3,0.6-5.7,1.7-8.1
			c1.1-2.3,2.7-4.1,4.8-5.4c2.1-1.3,4.5-1.9,7.1-1.9c2.6,0,5,0.6,7.1,1.9c2.1,1.3,3.7,3,4.8,5.4c1.1,2.3,1.7,5,1.7,8V87.9z
			 M387.8,102.8h-7.5V71.7h7.5V102.8z M363.6,97h13.1v5.8h-20.6V71.7h7.5V97z M335.4,84.6h3.9c1.6,0,2.8-0.3,3.5-0.9
			c0.7-0.6,1-1.4,1-2.6c0-1.3-0.4-2.3-1.1-2.8c-0.8-0.6-2-0.9-3.7-0.9h-3.7V84.6z M335.4,89.6V97h4.9c1.4,0,2.4-0.3,3.1-0.9
			c0.7-0.6,1.1-1.5,1.1-2.6c0-2.6-1.3-3.9-3.9-3.9H335.4z M327.9,102.8V71.7h11.2c4,0,7,0.7,9.1,2.2c2.1,1.5,3.1,3.6,3.1,6.4
			c0,1.6-0.4,3-1.1,4.1c-0.7,1.1-1.8,2-3.3,2.5c1.6,0.4,2.9,1.2,3.7,2.4c0.9,1.2,1.3,2.6,1.3,4.3c0,3-1,5.3-2.9,6.9
			c-1.9,1.5-4.8,2.3-8.6,2.3H327.9z M322.7,102.8h-7.5V71.7h7.5V102.8z M294,84.6h3.9c1.6,0,2.8-0.3,3.5-0.9c0.7-0.6,1-1.4,1-2.6
			c0-1.3-0.4-2.3-1.1-2.8c-0.8-0.6-2-0.9-3.7-0.9H294V84.6z M294,89.6V97h4.9c1.4,0,2.4-0.3,3.1-0.9c0.7-0.6,1.1-1.5,1.1-2.6
			c0-2.6-1.3-3.9-3.9-3.9H294z M286.5,102.8V71.7h11.2c4,0,7,0.7,9.1,2.2c2.1,1.5,3.1,3.6,3.1,6.4c0,1.6-0.4,3-1.1,4.1
			c-0.7,1.1-1.8,2-3.3,2.5c1.6,0.4,2.9,1.2,3.7,2.4c0.9,1.2,1.3,2.6,1.3,4.3c0,3-1,5.3-2.9,6.9c-1.9,1.5-4.8,2.3-8.6,2.3H286.5z
			 M281.3,89.6h-11.8V97h13.9v5.8H262V71.7h21.5v5.8h-14V84h11.8V89.6z M244.6,91.2l-3.1,3.4v8.2H234V71.7h7.5v13.7l2.6-4l6.7-9.8
			h9.3l-10.5,13.8l10.5,17.4h-8.9L244.6,91.2z M217.8,97h13.1v5.8h-20.6V71.7h7.5V97z M198.8,86.6c0-3.1-0.5-5.4-1.5-7
			c-1-1.6-2.5-2.4-4.4-2.4c-3.8,0-5.7,2.8-6,8.5l0,2.3c0,3,0.5,5.4,1.5,7c1,1.6,2.5,2.5,4.5,2.5c1.9,0,3.4-0.8,4.4-2.4
			c1-1.6,1.5-3.9,1.6-6.9V86.6z M206.4,87.9c0,3-0.6,5.7-1.7,8.1c-1.1,2.3-2.7,4.1-4.8,5.4c-2.1,1.3-4.4,1.9-7.1,1.9
			c-2.6,0-5-0.6-7.1-1.8c-2.1-1.2-3.7-3-4.8-5.2c-1.1-2.3-1.7-4.9-1.8-7.8v-1.8c0-3,0.6-5.7,1.7-8.1c1.1-2.3,2.7-4.1,4.8-5.4
			c2.1-1.3,4.5-1.9,7.1-1.9c2.6,0,5,0.6,7.1,1.9c2.1,1.3,3.7,3,4.8,5.4c1.1,2.3,1.7,5,1.7,8V87.9z M175.7,90.4h-12.1v12.4h-7.5V71.7
			h20.8v5.8h-13.3v7.2h12.1V90.4z"/>
	</defs>
	<clipPath id="SVGID_2_">
		<use xlink:href="#SVGID_1_"  style="overflow:visible;"/>
	</clipPath>
	<g class="st0">
		<defs>
			<rect id="SVGID_3_" x="-766.4" y="-263.1" width="1368.7" height="1219.2"/>
		</defs>
		<clipPath id="SVGID_4_">
			<use xlink:href="#SVGID_3_"  style="overflow:visible;"/>
		</clipPath>
		<rect x="150.1" y="65.2" class="st1" width="355.6" height="44.1"/>
	</g>
</g>
<g>
	<defs>
		<path id="SVGID_5_" d="M300.6,51.7h-6.6v4.1h7.7V59h-11.9V41.7h11.9V45h-7.8v3.6h6.6V51.7z M280.9,55.8h7.3V59h-11.4V41.7h4.2
			V55.8z M265.3,52.6h3.7l-1.9-6L265.3,52.6z M270,55.8h-5.7l-1,3.2h-4.5l6.3-17.3h3.9l6.4,17.3H271L270,55.8z M259.9,45h-5.2V59
			h-4.2V45h-5.1v-3.2h14.4V45z M243.7,59h-4.2V41.7h4.2V59z M236.9,56.9c-0.6,0.7-1.6,1.3-2.8,1.7c-1.2,0.4-2.6,0.7-4.1,0.7
			c-2.3,0-4.1-0.7-5.4-2.1c-1.4-1.4-2.1-3.3-2.2-5.8l0-1.5c0-1.7,0.3-3.2,0.9-4.5c0.6-1.3,1.5-2.2,2.6-2.9c1.1-0.7,2.4-1,3.9-1
			c2.2,0,3.8,0.5,5,1.5c1.2,1,1.9,2.5,2.1,4.4h-4c-0.1-1-0.5-1.7-0.9-2.1s-1.1-0.6-2-0.6c-1,0-1.9,0.4-2.4,1.3
			c-0.6,0.9-0.9,2.2-0.9,3.8v1c0,1.7,0.3,3,0.9,3.9c0.6,0.9,1.5,1.3,2.8,1.3c1.1,0,1.9-0.2,2.4-0.7v-2.7h-2.9v-2.9h7.1V56.9z
			 M219.8,59h-4.2V41.7h4.2V59z M203.8,45v10.9h1.4c1.2,0,2.1-0.4,2.8-1.3c0.6-0.9,1-2.1,1-3.8V50c0-1.7-0.3-2.9-1-3.8
			c-0.6-0.8-1.6-1.3-2.8-1.3H203.8z M199.7,59V41.7h5.6c1.5,0,2.9,0.3,4.1,1c1.2,0.7,2.2,1.7,2.9,2.9c0.7,1.3,1,2.7,1,4.2v0.8
			c0,1.6-0.3,3-1,4.3c-0.7,1.3-1.6,2.2-2.8,2.9c-1.2,0.7-2.6,1.1-4.1,1.1H199.7z M192.6,45h-5.2V59h-4.2V45h-5.1v-3.2h14.4V45z
			 M176.5,59h-4.2V41.7h4.2V59z M160.5,45v10.9h1.4c1.2,0,2.1-0.4,2.8-1.3c0.6-0.9,1-2.1,1-3.8V50c0-1.7-0.3-2.9-1-3.8
			c-0.6-0.8-1.6-1.3-2.8-1.3H160.5z M156.3,59V41.7h5.6c1.5,0,2.9,0.3,4.1,1c1.2,0.7,2.2,1.7,2.9,2.9c0.7,1.3,1,2.7,1,4.2v0.8
			c0,1.6-0.3,3-1,4.3c-0.7,1.3-1.6,2.2-2.8,2.9c-1.2,0.7-2.6,1.1-4.1,1.1H156.3z"/>
	</defs>
	<clipPath id="SVGID_6_">
		<use xlink:href="#SVGID_5_"  style="overflow:visible;"/>
	</clipPath>
	<g class="st2">
		<defs>
			<rect id="SVGID_7_" x="-766.4" y="-263.1" width="1368.7" height="1219.2"/>
		</defs>
		<clipPath id="SVGID_8_">
			<use xlink:href="#SVGID_7_"  style="overflow:visible;"/>
		</clipPath>
		<rect x="150.2" y="35.4" class="st3" width="157.7" height="29.9"/>
	</g>
</g>
<g>
	<defs>
		<path id="SVGID_9_" d="M107,50.8L74.3,31.9c-0.4-0.3-1-0.3-1.4,0L40.2,50.8c-0.4,0.3-0.7,0.7-0.7,1.3v37.7c0,0.5,0.3,1,0.7,1.2
			l32.7,18.9c0,0,0,0,0.1,0c0.2,0.1,0.4,0.2,0.7,0.2c0.2,0,0.5-0.1,0.7-0.2c0,0,0,0,0.1,0L107,91c0.4-0.3,0.7-0.7,0.7-1.2V52
			C107.7,51.5,107.4,51,107,50.8z M88.2,78.4c-0.7-0.4-1.6-0.2-2,0.5c-0.4,0.7-0.2,1.6,0.5,2l16.6,8.8L75,106.1V71.7l29.8-17.2v32.7
			L88.2,78.4z M60.7,79.1c-0.4-0.7-1.3-0.9-2-0.5l-16.4,8.7V54.5l29.8,17.2v34.4L43.8,89.8l16.4-8.7C60.9,80.7,61.1,79.8,60.7,79.1z
			 M72.1,35.7v19.7c0,0.8,0.6,1.4,1.4,1.4c0.8,0,1.4-0.6,1.4-1.4V35.7L103.3,52L73.6,69.2L43.8,52L72.1,35.7z"/>
	</defs>
	<use xlink:href="#SVGID_9_"  style="overflow:visible;fill-rule:evenodd;clip-rule:evenodd;fill:#FFFFFF;"/>
	<clipPath id="SVGID_10_">
		<use xlink:href="#SVGID_9_"  style="overflow:visible;"/>
	</clipPath>
	<g class="st4">
		<defs>
			<rect id="SVGID_11_" x="-33" y="-327.9" width="2970" height="2320.3"/>
		</defs>
		<use xlink:href="#SVGID_11_"  style="overflow:visible;fill:#FFFFFF;"/>
		<clipPath id="SVGID_12_">
			<use xlink:href="#SVGID_11_"  style="overflow:visible;"/>
		</clipPath>
		<rect x="25" y="17.2" class="st5" width="97.2" height="107.3"/>
	</g>
</g>
</svg>
