<svg width="225" height="23" viewBox="0 0 225 23" fill="none" xmlns="http://www.w3.org/2000/svg">
<path d="M67.1851 0.337654H70.8273C79.7533 0.337654 83.5327 5.18085 83.5327 11.2322C83.5327 17.2836 79.7533 22.1267 70.8273 22.1267H67.1851V0.337654Z" fill="#0053EC"/>
<path d="M64.4614 22.1267C63.9335 15.4054 59.8849 12.5934 54.9231 12.5934C49.9613 12.5934 45.9232 15.4054 45.3953 22.1267H64.4614Z" fill="#0053EC"/>
<path d="M60.2016 5.27581C60.2016 6.31926 59.892 7.33929 59.312 8.20689C58.732 9.07449 57.9076 9.75071 56.9431 10.15C55.9786 10.5493 54.9172 10.6538 53.8933 10.4502C52.8694 10.2467 51.9288 9.7442 51.1906 9.00637C50.4524 8.26853 49.9497 7.32847 49.746 6.30507C49.5423 5.28166 49.6468 4.22087 50.0464 3.25684C50.4459 2.29282 51.1225 1.46885 51.9905 0.889134C52.8585 0.309421 53.8791 0 54.9231 0C56.323 0 57.6657 0.555843 58.6556 1.54525C59.6455 2.53465 60.2016 3.87658 60.2016 5.27581" fill="#0053EC"/>
<path d="M16.7593 1.12902L10.4357 11.0423L4.06975 1.12902H0V22.1215H4.27561V8.58374L10.3301 17.6106H10.4673L16.4532 8.58374V22.1215H20.7657V1.12902H16.7593Z" fill="#0053EC"/>
<path d="M28.8419 6.83745H24.5979V22.1215H28.8419V6.83745Z" fill="#0053EC"/>
<path d="M33.4553 10.2562H31.1433V6.85855H33.4659V2.70121H37.6887V6.85855H41.0406V10.2773H37.6676V16.9776C37.6676 18.1752 38.3168 18.7238 39.4095 18.7238C40.0613 18.7154 40.6991 18.5333 41.257 18.1963V21.9579C40.3906 22.312 39.4578 22.474 38.5227 22.4327C35.4084 22.4327 33.4553 20.8975 33.4553 17.5104V10.2562Z" fill="#0053EC"/>
<path d="M29.2325 2.51128C29.2335 3.00946 29.0866 3.49674 28.8104 3.91139C28.5341 4.32604 28.1409 4.64942 27.6806 4.84054C27.2203 5.03167 26.7136 5.08195 26.2247 4.98502C25.7358 4.88808 25.2867 4.6483 24.9342 4.29603C24.5818 3.94377 24.3419 3.49487 24.2449 3.00622C24.1479 2.51756 24.1982 2.01113 24.3894 1.55107C24.5807 1.09102 24.9042 0.698038 25.3191 0.421916C25.7339 0.145794 26.2215 -0.00104541 26.7199 -2.10824e-06C27.3859 0.00139184 28.0241 0.266421 28.495 0.737076C28.9659 1.20773 29.2311 1.84568 29.2325 2.51128" fill="#0053EC"/>
<path d="M198.737 21.4078C198.737 21.6234 198.823 21.8302 198.976 21.9826C199.128 22.1351 199.335 22.2207 199.551 22.2207C199.767 22.2207 199.974 22.1351 200.127 21.9826C200.28 21.8302 200.366 21.6234 200.366 21.4078V0.850579C200.366 0.634971 200.28 0.428195 200.127 0.275737C199.974 0.123279 199.767 0.0376358 199.551 0.0376358C199.335 0.0376358 199.128 0.123279 198.976 0.275737C198.823 0.428195 198.737 0.634971 198.737 0.850579V21.4078Z" fill="black"/>
<path d="M213.092 0.158073H208.078C206.759 0.158073 206.133 0.843069 206.133 2.25821V19.9701C206.133 21.3777 206.759 22.0702 208.078 22.0702H212.813C219.99 22.0325 224.333 17.5161 224.333 10.9523C224.333 4.38844 220.081 0.158073 213.092 0.158073ZM213.024 20.5271H208.606C207.98 20.5271 207.792 20.2787 207.792 19.5862V2.66467C207.792 1.97968 207.98 1.72375 208.606 1.72375H212.805C219.477 1.72375 222.644 5.63797 222.644 11.1104C222.621 16.7634 219.116 20.5271 213.024 20.5271Z" fill="black"/>
<path d="M123.307 2.66467C123.307 2.10012 123.466 1.97968 123.684 1.97968C123.903 1.97968 124.091 2.32595 124.189 2.44639L136.32 20.8131C136.5 21.1453 136.767 21.4227 137.092 21.6161C137.417 21.8095 137.789 21.9118 138.167 21.9121C139.358 21.9121 139.984 21.0691 139.984 19.7819V0.88069C139.984 0.673067 139.902 0.473954 139.754 0.327142C139.607 0.180331 139.408 0.0978394 139.2 0.0978394C138.992 0.0978394 138.793 0.180331 138.646 0.327142C138.499 0.473954 138.416 0.673067 138.416 0.88069V19.5636C138.416 20.1281 138.258 20.2486 138.039 20.2486C137.82 20.2486 137.632 19.9023 137.534 19.7819L125.403 1.41513C125.223 1.08299 124.956 0.805592 124.631 0.612174C124.306 0.418757 123.935 0.31649 123.556 0.316139C122.365 0.316139 121.739 1.15921 121.739 2.44639V21.4078C121.739 21.6154 121.822 21.8145 121.969 21.9613C122.116 22.1081 122.315 22.1906 122.523 22.1906C122.731 22.1906 122.931 22.1081 123.078 21.9613C123.225 21.8145 123.307 21.6154 123.307 21.4078V2.66467Z" fill="black"/>
<path d="M162.73 21.4078C162.73 21.6154 162.813 21.8145 162.96 21.9613C163.107 22.1082 163.306 22.1906 163.514 22.1906C163.722 22.1906 163.921 22.1082 164.068 21.9613C164.215 21.8145 164.298 21.6154 164.298 21.4078V2.50661C164.298 1.94206 164.426 1.82162 164.645 1.82162C164.863 1.82162 165.082 2.16787 165.18 2.28831L171.965 11.8029C172.024 11.9365 172.121 12.05 172.243 12.1298C172.366 12.2095 172.509 12.2519 172.655 12.2519C172.801 12.2519 172.945 12.2095 173.067 12.1298C173.189 12.05 173.286 11.9365 173.345 11.8029L180.176 2.28831C180.266 2.16034 180.492 1.82162 180.711 1.82162C180.93 1.82162 181.058 1.94958 181.058 2.50661V21.4078C181.058 21.6154 181.14 21.8145 181.287 21.9613C181.434 22.1082 181.634 22.1906 181.842 22.1906C182.05 22.1906 182.249 22.1082 182.396 21.9613C182.543 21.8145 182.626 21.6154 182.626 21.4078V2.2281C182.626 0.94845 182.03 0.165613 180.839 0.165613C180.455 0.161595 180.077 0.261652 179.745 0.455171C179.413 0.64869 179.14 0.928425 178.954 1.2646L172.689 10.1845L166.424 1.2646C166.245 0.931396 165.978 0.653101 165.653 0.459512C165.328 0.265924 164.956 0.164339 164.577 0.165613C163.386 0.165613 162.76 1.00867 162.76 2.29584L162.73 21.4078Z" fill="black"/>
<path d="M152.635 10.5458C152.786 10.6877 152.985 10.7666 153.193 10.7666C153.4 10.7666 153.6 10.6877 153.751 10.5458C153.822 10.466 153.877 10.3728 153.911 10.2715C153.946 10.1702 153.96 10.0629 153.952 9.95617C153.944 9.84942 153.915 9.74532 153.866 9.65005C153.818 9.55479 153.75 9.47032 153.668 9.40166L147.493 2.84534C147.146 2.46898 147.026 2.3109 147.026 2.09261C147.026 1.87432 147.184 1.71624 147.531 1.71624H157.121C157.227 1.72908 157.335 1.71913 157.437 1.68709C157.539 1.65505 157.633 1.60165 157.713 1.53042C157.793 1.4592 157.857 1.37182 157.9 1.27406C157.944 1.17631 157.966 1.07044 157.965 0.963508C157.966 0.856575 157.944 0.750688 157.9 0.652931C157.857 0.555175 157.793 0.467788 157.713 0.396568C157.633 0.325347 157.539 0.271938 157.437 0.239901C157.335 0.207864 157.227 0.197938 157.121 0.210773H147.094C145.993 0.210773 145.246 0.775324 145.246 1.71624C145.347 2.5981 145.784 3.4072 146.468 3.97445L152.635 10.5458Z" fill="black"/>
<path d="M158.975 19.0216C159.04 18.9327 159.086 18.8317 159.11 18.7245C159.134 18.6174 159.135 18.5065 159.115 18.3987C159.095 18.2908 159.052 18.1883 158.991 18.0973C158.929 18.0064 158.849 17.929 158.757 17.8699C158.668 17.8048 158.565 17.7601 158.457 17.7388C158.349 17.7175 158.237 17.7203 158.13 17.7468C158.023 17.7734 157.923 17.8231 157.837 17.8925C157.751 17.9619 157.682 18.0493 157.633 18.1484C156.999 19.0199 156.162 19.7236 155.193 20.1985C154.225 20.6733 153.155 20.905 152.077 20.8733C149.257 20.8733 146.181 19.2098 146.181 15.6493C146.181 12.5104 149.25 11.1329 149.8 10.8845C149.904 10.8494 149.999 10.7922 150.078 10.7167C150.157 10.6413 150.219 10.5496 150.259 10.4478C150.3 10.3461 150.317 10.2368 150.311 10.1276C150.304 10.0185 150.274 9.912 150.222 9.81565C150.173 9.71926 150.105 9.63391 150.022 9.56486C149.939 9.49582 149.842 9.44455 149.738 9.41422C149.635 9.38388 149.526 9.37514 149.418 9.38851C149.311 9.40188 149.207 9.4371 149.114 9.49197C148.285 9.77049 144.545 11.4867 144.545 15.7171C144.545 19.9475 147.9 22.4465 151.881 22.4465C155.537 22.439 157.988 20.7153 158.975 19.0216Z" fill="black"/>
</svg>
