<svg width="84" height="23" viewBox="0 0 84 23" fill="none" xmlns="http://www.w3.org/2000/svg">
<path d="M67.1851 0.337646H70.8273C79.7533 0.337646 83.5327 5.18084 83.5327 11.2322C83.5327 17.2835 79.7533 22.1267 70.8273 22.1267H67.1851V0.337646Z" fill="#0053EC"/>
<path d="M64.4614 22.1267C63.9335 15.4054 59.8849 12.5934 54.9231 12.5934C49.9613 12.5934 45.9232 15.4054 45.3953 22.1267H64.4614Z" fill="#0053EC"/>
<path d="M60.2016 5.27581C60.2016 6.31926 59.892 7.33929 59.312 8.20689C58.732 9.07449 57.9076 9.75071 56.9431 10.15C55.9786 10.5493 54.9172 10.6538 53.8933 10.4502C52.8694 10.2467 51.9288 9.7442 51.1906 9.00637C50.4524 8.26853 49.9497 7.32847 49.746 6.30507C49.5423 5.28166 49.6468 4.22087 50.0464 3.25684C50.4459 2.29282 51.1225 1.46885 51.9905 0.889134C52.8585 0.309421 53.8791 0 54.9231 0C56.323 0 57.6657 0.555843 58.6556 1.54525C59.6455 2.53465 60.2016 3.87658 60.2016 5.27581" fill="#0053EC"/>
<path d="M16.7593 1.12903L10.4357 11.0423L4.06975 1.12903H0V22.1215H4.27561V8.58375L10.3301 17.6107H10.4673L16.4532 8.58375V22.1215H20.7657V1.12903H16.7593Z" fill="#0053EC"/>
<path d="M28.8419 6.83745H24.5979V22.1215H28.8419V6.83745Z" fill="#0053EC"/>
<path d="M33.4553 10.2562H31.1433V6.85856H33.4659V2.70122H37.6887V6.85856H41.0406V10.2773H37.6676V16.9776C37.6676 18.1752 38.3168 18.7239 39.4095 18.7239C40.0613 18.7154 40.6991 18.5333 41.257 18.1963V21.9579C40.3906 22.312 39.4578 22.474 38.5227 22.4327C35.4084 22.4327 33.4553 20.8975 33.4553 17.5104V10.2562Z" fill="#0053EC"/>
<path d="M29.2325 2.51129C29.2335 3.00947 29.0866 3.49674 28.8104 3.9114C28.5341 4.32605 28.1409 4.64942 27.6806 4.84055C27.2203 5.03168 26.7136 5.08196 26.2247 4.98502C25.7358 4.88809 25.2867 4.6483 24.9342 4.29604C24.5818 3.94377 24.3419 3.49488 24.2449 3.00623C24.1479 2.51757 24.1982 2.01114 24.3894 1.55108C24.5807 1.09102 24.9042 0.698045 25.3191 0.421924C25.7339 0.145802 26.2215 -0.00103778 26.7199 5.52116e-06C27.3859 0.00139946 28.0241 0.266428 28.495 0.737084C28.9659 1.20774 29.2311 1.84568 29.2325 2.51129" fill="#0053EC"/>
</svg>
