<?xml version="1.0" encoding="utf-8"?>
<svg version="1.1" id="Layer_1" xmlns="http://www.w3.org/2000/svg" xmlns:xlink="http://www.w3.org/1999/xlink" x="0px" y="0px"
         viewBox="0 0 331.8 69.1" xml:space="preserve">
<title>uni-login</title>
<path class="st0" d="M0,2.8h10.1v29c0,8.6,2.7,14.2,10.4,14.2S31,40.4,31,31.8v-29h10.1v32.1c0,13.5-7.6,19-20.5,19S0,48.4,0,34.9
        V2.8z"/>
<path class="st0" d="M51.1,2.8h12.4l19.1,37.6h0.1V2.8h9.6v50.3H80.1L60.9,15.5h-0.1v37.6h-9.7V2.8z"/>
<path class="st0" d="M102,2.8h10.1v50.3H102V2.8z"/>
<path class="st0" d="M134.4,15.4c6.9,0,12.6,5.6,12.6,12.5c0,6.9-5.6,12.6-12.5,12.6S121.8,35,121.8,28c0,0,0,0,0-0.1
        C121.9,21,127.4,15.4,134.4,15.4z"/>
<path class="st0" d="M157.5,2.8h10.1v42.3h19.5v7.9h-29.6L157.5,2.8z"/>
<path class="st0" d="M208.9,15.1c11,0,19.4,7.4,19.4,19.7c0,10.7-7.1,19.2-19.4,19.2s-19.4-8.5-19.4-19.2
        C189.5,22.5,197.9,15.1,208.9,15.1z M208.9,46.4c7.4,0,9.4-6.6,9.4-12.8c0-5.7-3-11-9.4-11s-9.3,5.5-9.3,11
        C199.6,39.7,201.5,46.4,208.9,46.4z"/>
<path class="st0" d="M269.2,15.9v33.5c0,10.1-4,19.6-19.6,19.6c-4.4,0-8.8-0.8-12.8-2.5l0.8-8.2c3,1.6,7.8,3.2,10.8,3.2
        c10.7,0,11.2-8,11.2-14.4h-0.1c-1.8,3.2-6.1,5.9-11.5,5.9c-11,0-15.1-8.8-15.1-18.7c0-8.9,4.6-19.2,15.7-19.2
        c4.9,0,8.7,1.7,11.4,5.9h0.1v-5.1H269.2z M259.6,34.1c0-6.3-2.5-11.5-8.1-11.5c-6.5,0-8.6,6-8.6,11.7c0,5,2.7,11.2,8.2,11.2
        C257.1,45.6,259.6,40.3,259.6,34.1z"/>
<path class="st0" d="M278.6,0h9.6v9.2h-9.6V0z M278.6,16h9.6v37.1h-9.6V16z"/>
<path class="st0" d="M297.7,15.9h9.1v5h0.1c3-4.2,7.1-5.9,12.2-5.9c8.8,0,12.6,6.2,12.6,14.5V53h-9.7V33.3c0-4.5-0.1-10.7-6.3-10.7
        c-7,0-8.5,7.6-8.5,12.3v18.2h-9.6L297.7,15.9z"/>
</svg>
