<svg width="81" height="23" viewBox="0 0 81 23" fill="none" xmlns="http://www.w3.org/2000/svg">
<g clip-path="url(#clip0_501_41)">
<path d="M2.49269 2.05858V11.9539C2.49269 14.6694 3.41341 16.0732 5.86118 16.0732C8.30896 16.0732 9.22968 14.6694 9.22968 11.9539V2.05858H11.7224V11.5397C11.7224 16.2343 10.1504 18.3974 5.86118 18.3974C1.57196 18.3974 0 16.2343 0 11.5397V2.05858H2.49269Z" fill="#015AB3"/>
<path d="M15.3152 18.1214V6.15489H17.763V8.13396H17.8753C18.3693 6.84526 19.3574 5.87874 21.154 5.87874C23.5344 5.87874 24.9491 7.58166 24.9491 10.5273V18.1214H22.5014V10.8494C22.5014 8.98542 21.8052 8.04191 20.3006 8.04191C19.0206 8.04191 17.763 8.70927 17.763 10.113V18.1214H15.3152Z" fill="#015AB3"/>
<path d="M28.1152 2.70292V2.31171C28.1152 1.5523 28.5643 1 29.5749 1C30.5854 1 31.0121 1.5523 31.0121 2.31171V2.70292C31.0121 3.46233 30.5854 4.01463 29.5749 4.01463C28.5643 4.01463 28.1152 3.46233 28.1152 2.70292ZM28.3397 6.15479H30.7875V18.1213H28.3397V6.15479Z" fill="#015AB3"/>
<path d="M36.7834 18.1214C35.1216 18.1214 34.2907 17.1779 34.2907 15.636V1.09215H36.7385V16.0733H38.3554V18.1214H36.7834Z" fill="#272525"/>
<path d="M39.9046 12.1381C39.9046 8.31806 42.0156 5.87874 45.2718 5.87874C48.528 5.87874 50.6389 8.31806 50.6389 12.1381C50.6389 15.9582 48.528 18.3975 45.2718 18.3975C42.0156 18.3975 39.9046 15.9582 39.9046 12.1381ZM48.0564 13.1507V11.1256C48.0564 9.00843 46.9336 7.94986 45.2718 7.94986C43.61 7.94986 42.4871 9.00843 42.4871 11.1256V13.1507C42.4871 15.2678 43.61 16.3264 45.2718 16.3264C46.9336 16.3264 48.0564 15.2678 48.0564 13.1507Z" fill="#272525"/>
<path d="M57.6677 23C53.8501 23 52.368 21.9414 52.368 20.1234C52.368 18.8117 53.1315 18.0983 54.3666 17.8222V17.5691C53.5133 17.2929 53.0417 16.6255 53.0417 15.7281C53.0417 14.4854 53.9849 13.8871 55.1077 13.6109V13.5189C53.7378 12.8515 52.9743 11.5858 52.9743 9.97495C52.9743 7.53563 54.6585 5.87873 57.6228 5.87873C58.4088 5.87873 59.1274 5.99379 59.7337 6.24693V5.92475C59.7337 4.86618 60.2278 4.22183 61.2608 4.22183H63.0573V6.24693H60.6769V6.73019C61.7324 7.44358 62.3163 8.5942 62.3163 9.97495C62.3163 12.3913 60.6096 14.0251 57.6453 14.0251C57.0839 14.0251 56.5449 13.9561 56.1182 13.841C55.5344 14.0482 54.9954 14.4394 54.9954 15.0377C54.9954 15.682 55.6017 15.9352 56.6347 15.9352H59.5092C62.3836 15.9352 63.5963 17.1778 63.5963 19.249C63.5963 21.7343 61.8671 23 57.6677 23ZM59.1723 18.1674H55.22C54.681 18.4896 54.4115 18.9728 54.4115 19.5481C54.4115 20.5146 55.1077 21.182 56.9267 21.182H58.4537C60.3625 21.182 61.3057 20.6297 61.3057 19.5251C61.3057 18.6967 60.7668 18.1674 59.1723 18.1674ZM59.9134 10.182V9.72172C59.9134 8.36398 59.0825 7.69662 57.6453 7.69662C56.2081 7.69662 55.3772 8.36398 55.3772 9.72172V10.182C55.3772 11.5397 56.2081 12.2071 57.6453 12.2071C59.0825 12.2071 59.9134 11.5398 59.9134 10.182Z" fill="#272525"/>
<path d="M65.1905 2.70292V2.31171C65.1905 1.5523 65.6397 1 66.6502 1C67.6608 1 68.0874 1.5523 68.0874 2.31171V2.70292C68.0874 3.46233 67.6608 4.01463 66.6502 4.01463C65.6397 4.01463 65.1905 3.46233 65.1905 2.70292ZM65.4151 6.15479H67.8629V18.1213H65.4151V6.15479Z" fill="#272525"/>
<path d="M71.3661 18.1214V6.15489H73.8139V8.13396H73.9262C74.4202 6.84526 75.4083 5.87874 77.2048 5.87874C79.5853 5.87874 81 7.58166 81 10.5273V18.1214H78.5522V10.8494C78.5522 8.98542 77.8561 8.04191 76.3515 8.04191C75.0715 8.04191 73.8139 8.70927 73.8139 10.113V18.1214H71.3661Z" fill="#272525"/>
</g>
<defs>
<clipPath id="clip0_501_41">
<rect width="81" height="22" fill="white" transform="translate(0 1)"/>
</clipPath>
</defs>
</svg>
