<?xml version="1.0" encoding="UTF-8"?>
<svg width="24px" height="19px" viewBox="0 0 24 19" version="1.1" xmlns="http://www.w3.org/2000/svg" xmlns:xlink="http://www.w3.org/1999/xlink">
    <!-- Generator: sketchtool 52.4 (67378) - http://www.bohemiancoding.com/sketch -->
    <title>311ED7A6-E381-42E7-AAD4-97EF0ED44F6A</title>
    <desc>Created with sketchtool.</desc>
    <g id="----Sign-on" stroke="none" stroke-width="1" fill="none" fill-rule="evenodd" opacity="0.2">
        <g id="D-/-Sign-on-01---Documenattion" transform="translate(-917.000000, -477.000000)" fill="#000000" fill-rule="nonzero">
            <g id="D-/-Input-field-/-Kode" transform="translate(476.000000, 433.000000)">
                <g id="D-/-Icons--/-Eye-hidden" transform="translate(441.000000, 44.000000)">
                    <g id="eye-hidden">
                        <path d="M23.9372727,8.94151515 C22.773452,6.53799938 20.9942337,4.52728429 18.8018182,3.13787879 L20.8418182,0.987424242 C20.9801774,0.841378402 21.0342128,0.628511943 20.9835699,0.429009604 C20.9329269,0.229507265 20.7852993,0.0736781997 20.5962971,0.0202217128 C20.4072949,-0.0332347742 20.2056319,0.0238026296 20.0672727,0.169848485 L17.7981818,2.565 C15.992672,1.63383931 14.0094918,1.15037825 12,1.15151515 C6.94994187,1.17294484 2.33805084,4.18256286 0.0627272727,8.94151515 C-0.0197314318,9.10837162 -0.0197314318,9.30723444 0.0627272727,9.47409091 C1.289553,12.0068395 3.19748583,14.1008852 5.54727273,15.4936364 L3.15818182,18.0125758 C3.01982259,18.1586216 2.96578715,18.3714881 3.01643014,18.5709904 C3.06707313,18.7704927 3.21470066,18.9263218 3.40370288,18.9797783 C3.59270509,19.0332348 3.79436806,18.9761974 3.93272727,18.8301515 L6.57545455,16.0406061 C8.27988101,16.8543804 10.1293259,17.2744599 12,17.2727273 C17.0515081,17.2483235 21.6632517,14.2354652 23.9372727,9.47409091 C24.0197314,9.30723444 24.0197314,9.10837162 23.9372727,8.94151515 Z M1.18636364,9.21212121 C3.3088053,4.98112669 7.46449114,2.32595962 12,2.3030303 C13.7154049,2.30086247 15.4114484,2.68561308 16.9745455,3.43151515 L15.2045455,5.2969697 C13.2532466,3.5906173 10.3922073,3.73228118 8.6008043,5.62395284 C6.80940126,7.51562449 6.67632222,10.535666 8.29363636,12.594697 L6.35454545,14.6415152 C4.16320812,13.407957 2.36541651,11.5193008 1.18636364,9.21212121 Z M15.8181818,9.21212121 C15.8196099,10.7013352 15.0429352,12.0700149 13.798397,12.7714473 C12.5538588,13.4728797 11.0443077,13.3927364 9.87272727,12.5630303 L15.1745455,6.96666667 C15.5952862,7.63122291 15.8193249,8.41282658 15.8181818,9.21212121 Z M9.06,11.7857576 C7.79257797,10.184606 7.89242902,7.82711009 9.29015661,6.35173097 C10.6878842,4.87635184 12.9213014,4.77095351 14.4381818,6.10878788 L9.06,11.7857576 Z M12,16.1212121 C10.4254612,16.1230571 8.86592135,15.7983203 7.41,15.1654545 L9.09818182,13.3834848 C11.0516301,14.867404 13.7361692,14.6376603 15.4376361,12.8409525 C17.139103,11.0442447 17.3556864,8.21047329 15.9490909,6.14909091 L18,3.98712121 C20.0336143,5.22243248 21.7005917,7.03186649 22.8136364,9.21212121 C20.688475,13.4404039 16.5344939,16.0944818 12,16.1212121 Z" id="Shape"></path>
                    </g>
                </g>
            </g>
        </g>
    </g>
</svg>