<?xml version="1.0" encoding="UTF-8"?>
<svg width="18px" height="12px" viewBox="0 0 18 12" version="1.1" xmlns="http://www.w3.org/2000/svg" xmlns:xlink="http://www.w3.org/1999/xlink">
    <!-- Generator: sketchtool 51.3 (57544) - http://www.bohemiancoding.com/sketch -->
    <title>D03D31ED-7592-4969-AB0C-BDE192014406</title>
    <desc>Created with sketchtool.</desc>
    <defs></defs>
    <g id="----Sign-on" stroke="none" stroke-width="1" fill="none" fill-rule="evenodd">
        <g id="D-/-Sign-on-01---long" transform="translate(-923.000000, -480.000000)">
            <g id="D-/-Input-field-/-CPR" transform="translate(476.000000, 433.000000)">
                <g id="Input-field" transform="translate(0.000000, 28.000000)">
                    <g id="eye" transform="translate(447.000000, 19.000000)">
                        <g id="Icon">
                            <rect id="Background" x="0" y="0" width="18" height="12"></rect>
                            <g id="noun_Eye_1628161_000000" fill="#000000" fill-rule="nonzero">
                                <path d="M9,0 C5.1966228,0 1.8926934,2.35236 0.24375,5.79910714 C0.183720801,5.9229509 0.183720801,6.07035267 0.24375,6.19419643 C1.8926934,9.64096071 5.1966242,12 9,12 C12.803564,12 16.107301,9.64149643 17.75625,6.19419643 C17.8162792,6.07035267 17.8162792,5.9229509 17.75625,5.79910714 C16.1073012,2.351805 12.803564,0 9,0 Z M9,0.857142857 C12.4203992,0.857142857 15.3819912,2.93569714 16.93125,6 C15.3812734,9.06152143 12.4185146,11.1428571 9,11.1428571 C5.5817276,11.1428571 2.6187718,9.06145714 1.06875,6 C2.6180578,2.93577643 5.5798446,0.857142857 9,0.857142857 Z M9,2.14285714 C7.0165132,2.14285714 5.4,3.87482786 5.4,6 C5.4,8.12515714 7.0165112,9.85714286 9,9.85714286 C10.9834888,9.85714286 12.6,8.12515714 12.6,6 C12.6,3.87482786 10.9834868,2.14285714 9,2.14285714 Z M9,3 C10.5511352,3 11.8,4.33806214 11.8,6 C11.8,7.66191429 10.5511332,9 9,9 C7.4488668,9 6.2,7.66191429 6.2,6 C6.2,4.33806214 7.4488648,3 9,3 Z" id="Shape"></path>
                            </g>
                        </g>
                    </g>
                </g>
            </g>
        </g>
    </g>
</svg>