<?xml version="1.0" encoding="UTF-8"?>
<svg width="18px" height="14px" viewBox="0 0 18 14" version="1.1" xmlns="http://www.w3.org/2000/svg" xmlns:xlink="http://www.w3.org/1999/xlink">
    <!-- Generator: sketchtool 51.3 (57544) - http://www.bohemiancoding.com/sketch -->
    <title>74F09078-E784-422D-A80B-8041768A2A9A</title>
    <desc>Created with sketchtool.</desc>
    <defs></defs>
    <g id="----Sign-on" stroke="none" stroke-width="1" fill="none" fill-rule="evenodd" opacity="0.199999988">
        <g id="D-/-Sign-on-01---Documenattion" transform="translate(-924.000000, -479.000000)" fill="#000000" fill-rule="nonzero">
            <g id="D-/-Input-field-/-Kode" transform="translate(476.000000, 433.000000)">
                <g id="Icon" transform="translate(448.000000, 46.000000)">
                    <g id="noun_Eye_1628161_000000">
                        <g>
                            <g id="hidden-eye">
                                <g id="Shape">
                                    <path d="M17.8,6.8 C17,5.1 15.7,3.6 14.2,2.6 L15.3,1.4 C15.5,1.2 15.5,0.9 15.3,0.7 C15.1,0.5 14.8,0.5 14.6,0.7 L13.3,2.1 C12,1.4 10.5,1 9,1 C5.2,1 1.9,3.4 0.2,6.8 C0.1,6.9 0.1,7.1 0.2,7.2 C1.1,9 2.4,10.5 4.1,11.6 L2.8,13 C2.6,13.2 2.6,13.5 2.8,13.7 C3,13.9 3.3,13.9 3.5,13.7 L5,12.1 C6.2,12.7 7.6,13 9,13 C12.8,13 16.1,10.6 17.8,7.2 C17.8,7.1 17.8,6.9 17.8,6.8 Z M1.1,7 C2.6,3.9 5.6,1.9 9,1.9 C10.3,1.9 11.5,2.2 12.7,2.8 L11.4,4.2 C10.7,3.5 9.9,3.1 9,3.1 C7,3.1 5.4,4.9 5.4,7 C5.4,7.9 5.7,8.7 6.2,9.4 L4.7,10.9 C3.2,10 1.9,8.7 1.1,7 Z M11.8,7 C11.8,8.7 10.6,10 9,10 C8.4,10 7.9,9.8 7.5,9.5 L11.4,5.4 C11.6,5.9 11.8,6.4 11.8,7 Z M6.8,8.8 C6.4,8.3 6.2,7.7 6.2,7 C6.2,5.3 7.4,4 9,4 C9.7,4 10.3,4.3 10.8,4.7 L6.8,8.8 Z M9,12.1 C7.8,12.1 6.7,11.8 5.6,11.4 L6.9,10.1 C7.5,10.6 8.2,10.8 9,10.8 C11,10.8 12.6,9.1 12.6,6.9 C12.6,6.1 12.4,5.4 12,4.8 L13.6,3.2 C15,4.1 16.1,5.4 16.9,7 C15.4,10.1 12.4,12.1 9,12.1 Z"></path>
                                </g>
                            </g>
                        </g>
                    </g>
                </g>
            </g>
        </g>
    </g>
</svg>