<?xml version="1.0" encoding="UTF-8"?>
<svg width="24px" height="16px" viewBox="0 0 24 16" version="1.1" xmlns="http://www.w3.org/2000/svg" xmlns:xlink="http://www.w3.org/1999/xlink">
    <!-- Generator: sketchtool 51.3 (57544) - http://www.bohemiancoding.com/sketch -->
    <title>51BF1162-88B9-428D-9D9C-0BECB2014E49</title>
    <desc>Created with sketchtool.</desc>
    <defs></defs>
    <g id="----Sign-on" stroke="none" stroke-width="1" fill="none" fill-rule="evenodd">
        <g id="D-/-Sign-on-01---Documenattion" transform="translate(-917.000000, -328.000000)">
            <g id="D-/-Input-field-/-CPR" transform="translate(476.000000, 283.000000)">
                <g id="D-/-Icons-/-Eye" transform="translate(441.000000, 45.000000)">
                    <rect id="Background" x="0" y="0" width="24" height="16"></rect>
                    <g id="eye" fill="#000000" fill-rule="nonzero">
                        <path d="M12,0 C6.95012152,0.021925802 2.33853175,3.00872 0.0627272727,7.73142857 C-0.0197314318,7.89703048 -0.0197314318,8.0943981 0.0627272727,8.26 C2.31970029,13.0016744 6.94234201,15.9982797 12,15.9982797 C17.057658,15.9982797 21.6802997,13.0016744 23.9372727,8.26 C24.0197314,8.0943981 24.0197314,7.89703048 23.9372727,7.73142857 C21.6619492,3.00825788 17.0500581,0.0212685667 12,0 Z M12,1.14285714 C16.5353395,1.16624372 20.6907407,3.80126661 22.8136364,8 C20.7079533,12.2158317 16.541818,14.8579863 12,14.8579863 C7.458182,14.8579863 3.29204668,12.2158317 1.18636364,8 C3.30925931,3.80126661 7.46466046,1.16624372 12,1.14285714 Z M12,2.85714286 C9.28878396,2.85714286 7.09090909,5.15967843 7.09090909,8 C7.09090909,10.8403216 9.28878396,13.1428571 12,13.1428571 C14.711216,13.1428571 16.9090909,10.8403216 16.9090909,8 C16.9090909,6.63602948 16.3918846,5.32792364 15.4712515,4.36345084 C14.5506183,3.39897804 13.3019719,2.85714286 12,2.85714286 Z M12,4 C14.1087236,4 15.8181818,5.790861 15.8181818,8 C15.8181818,10.209139 14.1087236,12 12,12 C9.89127641,12 8.18181818,10.209139 8.18181818,8 C8.18181818,5.790861 9.89127641,4 12,4 Z" id="Shape"></path>
                    </g>
                </g>
            </g>
        </g>
    </g>
</svg>